<svg width="12" height="14" viewBox="0 0 12 14" fill="none" xmlns="http://www.w3.org/2000/svg">
  <path d="M7.33317 7.99992V4.33325C7.33317 3.62601 7.05222 2.94773 6.55212 2.44763C6.05202 1.94754 5.37375 1.66659 4.6665 1.66659C3.95926 1.66659 3.28098 1.94754 2.78089 2.44763C2.28079 2.94773 1.99984 3.62601 1.99984 4.33325V7.99992C1.99984 9.14919 2.45638 10.2514 3.26904 11.064C4.0817 11.8767 5.1839 12.3333 6.33317 12.3333C7.48244 12.3333 8.58464 11.8767 9.3973 11.064C10.21 10.2514 10.6665 9.14919 10.6665 7.99992V1.66659H11.9998V7.99992C11.9998 9.50281 11.4028 10.9442 10.3401 12.0069C9.2774 13.0696 7.83606 13.6666 6.33317 13.6666C4.83028 13.6666 3.38894 13.0696 2.32623 12.0069C1.26353 10.9442 0.666504 9.50281 0.666504 7.99992V4.33325C0.666504 3.27239 1.08793 2.25497 1.83808 1.50482C2.58822 0.754679 3.60564 0.333252 4.6665 0.333252C5.72737 0.333252 6.74479 0.754679 7.49493 1.50482C8.24508 2.25497 8.6665 3.27239 8.6665 4.33325V7.99992C8.6665 8.61876 8.42067 9.21225 7.98309 9.64983C7.5455 10.0874 6.95201 10.3333 6.33317 10.3333C5.71433 10.3333 5.12084 10.0874 4.68325 9.64983C4.24567 9.21225 3.99984 8.61876 3.99984 7.99992V4.33325H5.33317V7.99992C5.33317 8.26514 5.43853 8.51949 5.62606 8.70703C5.8136 8.89456 6.06795 8.99992 6.33317 8.99992C6.59839 8.99992 6.85274 8.89456 7.04028 8.70703C7.22781 8.51949 7.33317 8.26514 7.33317 7.99992V7.99992Z" fill="black"/>
</svg>
