<svg width="9" height="6" viewBox="0 0 9 6" fill="none" xmlns="http://www.w3.org/2000/svg">
  <path d="M8.912 0.752001C8.912 0.826667 8.88 0.890667 8.816 0.944L4.656 5.12C4.60267 5.17333 4.53333 5.2 4.448 5.2C4.36267 5.2 4.29867 5.17333 4.256 5.12L0.096 0.944C0.0319999 0.890667 0 0.826667 0 0.752001C0 0.677334 0.0319999 0.608001 0.096 0.544001L0.544 0.0960007C0.597334 0.0320005 0.661333 0 0.736 0C0.810667 0 0.88 0.0320005 0.944 0.0960007L4.448 3.6L7.968 0.0960007C8.02133 0.0320005 8.09067 0 8.176 0C8.26133 0 8.32533 0.0320005 8.368 0.0960007L8.816 0.544001C8.88 0.597334 8.912 0.666667 8.912 0.752001Z" fill="#6F6F6F"/>
</svg>
  