<svg width="24" height="24" viewBox="0 0 24 24" fill="none" xmlns="http://www.w3.org/2000/svg">
  <circle cx="12" cy="12" r="12" fill="#08CA6D" fill-opacity="0.19"/>
  <path d="M11.9997 18.6668C8.31767 18.6668 5.33301 15.6822 5.33301 12.0002C5.33301 8.31816 8.31767 5.3335 11.9997 5.3335C15.6817 5.3335 18.6663 8.31816 18.6663 12.0002C18.6663 15.6822 15.6817 18.6668 11.9997 18.6668ZM11.9997 17.3335C13.4142 17.3335 14.7707 16.7716 15.7709 15.7714C16.7711 14.7712 17.333 13.4147 17.333 12.0002C17.333 10.5857 16.7711 9.22912 15.7709 8.22893C14.7707 7.22873 13.4142 6.66683 11.9997 6.66683C10.5852 6.66683 9.22863 7.22873 8.22844 8.22893C7.22824 9.22912 6.66634 10.5857 6.66634 12.0002C6.66634 13.4147 7.22824 14.7712 8.22844 15.7714C9.22863 16.7716 10.5852 17.3335 11.9997 17.3335ZM9.66634 13.3335H13.333C13.4214 13.3335 13.5062 13.2984 13.5687 13.2359C13.6312 13.1734 13.6663 13.0886 13.6663 13.0002C13.6663 12.9118 13.6312 12.827 13.5687 12.7645C13.5062 12.7019 13.4214 12.6668 13.333 12.6668H10.6663C10.2243 12.6668 9.80039 12.4912 9.48783 12.1787C9.17527 11.8661 8.99967 11.4422 8.99967 11.0002C8.99967 10.5581 9.17527 10.1342 9.48783 9.82165C9.80039 9.50909 10.2243 9.3335 10.6663 9.3335H11.333V8.00016H12.6663V9.3335H14.333V10.6668H10.6663C10.5779 10.6668 10.4932 10.7019 10.4306 10.7645C10.3681 10.827 10.333 10.9118 10.333 11.0002C10.333 11.0886 10.3681 11.1734 10.4306 11.2359C10.4932 11.2984 10.5779 11.3335 10.6663 11.3335H13.333C13.775 11.3335 14.199 11.5091 14.5115 11.8217C14.8241 12.1342 14.9997 12.5581 14.9997 13.0002C14.9997 13.4422 14.8241 13.8661 14.5115 14.1787C14.199 14.4912 13.775 14.6668 13.333 14.6668H12.6663V16.0002H11.333V14.6668H9.66634V13.3335Z" fill="#25B69C"/>
</svg>
