<svg width="16" height="18" viewBox="0 0 16 18" fill="none" xmlns="http://www.w3.org/2000/svg">
  <path d="M13.4869 11.7246L15.2501 11.2219C15.3906 11.1832 15.4742 11.0285 15.4374 10.8773L15.3002 10.3324C15.2634 10.1812 15.1162 10.0934 14.9757 10.132L12.1921 10.9266L9.05389 9L12.1921 7.07344L14.9757 7.86797C15.1162 7.90664 15.2634 7.81875 15.3002 7.66758L15.4374 7.12266C15.4742 6.97148 15.3906 6.8168 15.2501 6.77813L13.4869 6.27539L15.3571 5.12578C15.4843 5.04844 15.5278 4.87617 15.4541 4.74258L15.1898 4.25391C15.1162 4.12031 14.9556 4.07461 14.8285 4.15195L12.9583 5.30156L13.43 3.42773C13.4668 3.27656 13.3832 3.12187 13.2427 3.0832L12.7308 2.93906C12.5903 2.90039 12.443 2.98828 12.4062 3.13945L11.6602 6.09961L8.52192 8.02617V4.16953L10.5628 2.00391C10.6665 1.89492 10.6665 1.71563 10.5628 1.60664L10.1881 1.20938C10.0844 1.10039 9.91707 1.10039 9.81335 1.20938L8.52192 2.58047V0.28125C8.52192 0.126562 8.40483 0 8.25762 0H7.729C7.58179 0 7.46469 0.126562 7.46469 0.28125V2.58047L6.17326 1.20938C6.06955 1.10039 5.90227 1.10039 5.79855 1.20938L5.42384 1.60664C5.32012 1.71563 5.32012 1.89492 5.42384 2.00391L7.46135 4.17305V8.02969L4.32311 6.10313L3.58372 3.13594C3.54692 2.98477 3.39971 2.89687 3.25919 2.93555L2.7473 3.07969C2.60678 3.11836 2.52314 3.27305 2.55994 3.42422L3.03168 5.29805L1.16145 4.14844C1.03432 4.07109 0.873727 4.1168 0.800123 4.25039L0.535815 4.73906C0.46221 4.87266 0.505704 5.04492 0.632839 5.12227L2.50307 6.27187L0.743246 6.77813C0.602728 6.8168 0.519087 6.97148 0.555889 7.12266L0.693061 7.66758C0.729864 7.81875 0.877073 7.90664 1.01759 7.86797L3.80119 7.07344L6.93942 9L3.80119 10.9266L1.01759 10.132C0.877073 10.0934 0.729864 10.1812 0.693061 10.3324L0.555889 10.8773C0.519087 11.0285 0.602728 11.1832 0.743246 11.2219L2.50641 11.7246L0.636185 12.8707C0.50905 12.948 0.465556 13.1203 0.539161 13.2539L0.803468 13.7426C0.877073 13.8762 1.03767 13.9219 1.1648 13.8445L3.03503 12.6949L2.56329 14.5687C2.52649 14.7199 2.61013 14.8746 2.75065 14.9133L3.26253 15.0574C3.40305 15.0961 3.55026 15.0082 3.58706 14.857L4.33315 11.8969L7.47138 9.97031V13.827L5.43053 15.9961C5.32681 16.1051 5.32681 16.2844 5.43053 16.3934L5.80524 16.7906C5.90896 16.8996 6.07624 16.8996 6.17996 16.7906L7.47138 15.4195V17.7188C7.47138 17.8734 7.58848 18 7.73569 18H8.26431C8.41152 18 8.52861 17.8734 8.52861 17.7188V15.4195L9.82004 16.7906C9.92376 16.8996 10.091 16.8996 10.1948 16.7906L10.5695 16.3934C10.6732 16.2844 10.6732 16.1051 10.5695 15.9961L8.53196 13.827V9.97383L11.6702 11.9004L12.4163 14.8605C12.4531 15.0117 12.6003 15.0996 12.7408 15.0609L13.2527 14.9168C13.3932 14.8781 13.4769 14.7234 13.4401 14.5723L12.9683 12.6984L14.8385 13.848C14.9657 13.9254 15.1263 13.8797 15.1999 13.7461L15.4642 13.2574C15.5378 13.1238 15.4943 12.9516 15.3672 12.8742L13.4869 11.7246Z" fill="#2A2A2A"/>
</svg>