<svg width="10" height="6" viewBox="0 0 10 6" fill="none" xmlns="http://www.w3.org/2000/svg">
  <path d="M9.46766 0.976C9.46766 1.05067 9.43567 1.11467 9.37167 1.168L5.21166 5.344C5.15833 5.39733 5.089 5.424 5.00366 5.424C4.91833 5.424 4.85433 5.39733 4.81166 5.344L0.651664 1.168C0.587664 1.11467 0.555664 1.05067 0.555664 0.976C0.555664 0.901333 0.587664 0.832 0.651664 0.768L1.09966 0.32C1.153 0.256 1.217 0.223999 1.29166 0.223999C1.36633 0.223999 1.43566 0.256 1.49966 0.32L5.00366 3.824L8.52366 0.32C8.577 0.256 8.64633 0.223999 8.73166 0.223999C8.817 0.223999 8.881 0.256 8.92367 0.32L9.37167 0.768C9.43567 0.821333 9.46766 0.890666 9.46766 0.976Z" fill="#6F6F6F"/>
</svg>