<svg width="20" height="15" viewBox="0 0 20 15" fill="none" xmlns="http://www.w3.org/2000/svg">
  <path d="M0 0H19.4579V14.1596H0V0Z" fill="#009B3A"/>
  <path d="M9.72829 1.74146L0.975586 7.07993L9.72829 12.4184L18.481 7.07993L9.72829 1.74146Z" fill="#FEDF00"/>
  <path d="M9.72817 10.0777C11.3142 10.0777 12.5999 8.73555 12.5999 7.07988C12.5999 5.42422 11.3142 4.08203 9.72817 4.08203C8.14216 4.08203 6.85645 5.42422 6.85645 7.07988C6.85645 8.73555 8.14216 10.0777 9.72817 10.0777Z" fill="#002776"/>
  <path d="M9.82323 5.60549C9.00756 5.36482 8.15104 5.31513 7.31484 5.45998C7.11664 5.78033 6.97926 6.13746 6.91016 6.51193C7.74252 6.37159 8.59422 6.42319 9.40545 6.66311C10.6616 7.01877 11.6785 7.72248 12.2426 8.52873C12.4325 8.1707 12.5497 7.77562 12.5868 7.36818C12.0093 6.60529 11.0257 5.94592 9.82323 5.60549Z" fill="#F0F0F0"/>
</svg>
