<svg width="16" height="16" viewBox="0 0 16 16" fill="none" xmlns="http://www.w3.org/2000/svg">
  <path d="M8 12.3636C6.84269 12.3636 5.73278 11.9039 4.91444 11.0856C4.0961 10.2672 3.63636 9.15731 3.63636 8C3.63636 6.84269 4.0961 5.73278 4.91444 4.91444C5.73278 4.0961 6.84269 3.63636 8 3.63636C9.15731 3.63636 10.2672 4.0961 11.0856 4.91444C11.9039 5.73278 12.3636 6.84269 12.3636 8C12.3636 9.15731 11.9039 10.2672 11.0856 11.0856C10.2672 11.9039 9.15731 12.3636 8 12.3636ZM8 10.9091C8.77154 10.9091 9.51148 10.6026 10.057 10.057C10.6026 9.51148 10.9091 8.77154 10.9091 8C10.9091 7.22846 10.6026 6.48852 10.057 5.94296C9.51148 5.3974 8.77154 5.09091 8 5.09091C7.22846 5.09091 6.48852 5.3974 5.94296 5.94296C5.3974 6.48852 5.09091 7.22846 5.09091 8C5.09091 8.77154 5.3974 9.51148 5.94296 10.057C6.48852 10.6026 7.22846 10.9091 8 10.9091ZM7.27273 0H8.72727V2.18182H7.27273V0ZM7.27273 13.8182H8.72727V16H7.27273V13.8182ZM1.82909 2.85745L2.85745 1.82909L4.4 3.37164L3.37164 4.4L1.82909 2.85745ZM11.6 12.6284L12.6284 11.6L14.1709 13.1425L13.1425 14.1709L11.6 12.6284ZM13.1425 1.82836L14.1709 2.85745L12.6284 4.4L11.6 3.37164L13.1425 1.82836ZM3.37164 11.6L4.4 12.6284L2.85745 14.1709L1.82909 13.1425L3.37164 11.6ZM16 7.27273V8.72727H13.8182V7.27273H16ZM2.18182 7.27273V8.72727H0V7.27273H2.18182Z" fill="#2A2A2A"/>
</svg>
