<svg width="16" height="16" viewBox="0 0 16 16" fill="none" xmlns="http://www.w3.org/2000/svg">
  <path d="M8 12.3638C6.84269 12.3638 5.73278 11.904 4.91444 11.0857C4.0961 10.2673 3.63636 9.15743 3.63636 8.00012C3.63636 6.84281 4.0961 5.73291 4.91444 4.91457C5.73278 4.09622 6.84269 3.63649 8 3.63649C9.15731 3.63649 10.2672 4.09622 11.0856 4.91457C11.9039 5.73291 12.3636 6.84281 12.3636 8.00012C12.3636 9.15743 11.9039 10.2673 11.0856 11.0857C10.2672 11.904 9.15731 12.3638 8 12.3638ZM8 10.9092C8.77154 10.9092 9.51148 10.6027 10.057 10.0572C10.6026 9.5116 10.9091 8.77166 10.9091 8.00012C10.9091 7.22858 10.6026 6.48864 10.057 5.94308C9.51148 5.39752 8.77154 5.09103 8 5.09103C7.22846 5.09103 6.48852 5.39752 5.94296 5.94308C5.3974 6.48864 5.09091 7.22858 5.09091 8.00012C5.09091 8.77166 5.3974 9.5116 5.94296 10.0572C6.48852 10.6027 7.22846 10.9092 8 10.9092ZM7.27273 0.00012207H8.72727V2.18194H7.27273V0.00012207ZM7.27273 13.8183H8.72727V16.0001H7.27273V13.8183ZM1.82909 2.85758L2.85745 1.82921L4.4 3.37176L3.37164 4.40012L1.82909 2.85758ZM11.6 12.6285L12.6284 11.6001L14.1709 13.1427L13.1425 14.171L11.6 12.6285ZM13.1425 1.82849L14.1709 2.85758L12.6284 4.40012L11.6 3.37176L13.1425 1.82849ZM3.37164 11.6001L4.4 12.6285L2.85745 14.171L1.82909 13.1427L3.37164 11.6001ZM16 7.27285V8.7274H13.8182V7.27285H16ZM2.18182 7.27285V8.7274H0V7.27285H2.18182Z" fill="#2A2A2A"/>
</svg>
