<svg width="24" height="24" viewBox="0 0 24 24" fill="none" xmlns="http://www.w3.org/2000/svg">
  <circle cx="12" cy="12" r="12" fill="#FBE0E4"/>
  <path d="M16.9091 15.8889H18V17H6V15.8889H7.09091V7.55556C7.09091 7.40821 7.14838 7.26691 7.25067 7.16272C7.35296 7.05853 7.4917 7 7.63636 7H13.0909C13.2356 7 13.3743 7.05853 13.4766 7.16272C13.5789 7.26691 13.6364 7.40821 13.6364 7.55556V15.8889H15.8182V11.4444H14.7273V10.3333H16.3636C16.5083 10.3333 16.647 10.3919 16.7493 10.4961C16.8516 10.6002 16.9091 10.7415 16.9091 10.8889V15.8889ZM8.18182 8.11111V15.8889H12.5455V8.11111H8.18182ZM9.27273 11.4444H11.4545V12.5556H9.27273V11.4444ZM9.27273 9.22222H11.4545V10.3333H9.27273V9.22222Z" fill="#DC3145"/>
</svg>
