<svg width="14" height="14" viewBox="0 0 14 14" fill="none" xmlns="http://www.w3.org/2000/svg">
  <path d="M0 12.4741C0 12.0355 0.154 11.6621 0.462 11.3541L4.102 7.71412C3.70067 6.94879 3.5 6.12746 3.5 5.25012C3.5 3.81279 4.00867 2.57613 5.026 1.54013C6.04333 0.504125 7.28467 -0.00920822 8.75 0.000124997C10.2153 0.00945821 11.4567 0.522792 12.474 1.54013C13.4913 2.55746 14 3.79879 14 5.26412C14 6.72946 13.4913 7.96613 12.474 8.97413C11.4567 9.98213 10.2153 10.4908 8.75 10.5001C7.87267 10.5001 7.05133 10.2995 6.286 9.89813L2.646 13.5381C2.338 13.8461 1.96933 14.0001 1.54 14.0001C1.11067 14.0001 0.746667 13.8508 0.448 13.5521C0.149333 13.2535 0 12.8941 0 12.4741ZM0.77 12.4601C0.77 12.6655 0.844667 12.8475 0.994 13.0061C1.14333 13.1648 1.32533 13.2395 1.54 13.2301C1.75467 13.2208 1.94133 13.1415 2.1 12.9921L5.628 9.46413C5.208 9.15613 4.844 8.79213 4.536 8.37213L1.008 11.9001C0.849333 12.0588 0.77 12.2455 0.77 12.4601ZM4.382 5.25012C4.382 6.45412 4.80667 7.48546 5.656 8.34413C6.50533 9.20279 7.53667 9.62746 8.75 9.61813C9.96333 9.60879 10.9947 9.18413 11.844 8.34413C12.6933 7.50413 13.118 6.47279 13.118 5.25012C13.118 4.02746 12.6933 2.99613 11.844 2.15612C10.9947 1.31613 9.96333 0.891458 8.75 0.882124C7.53667 0.872791 6.50533 1.29746 5.656 2.15612C4.80667 3.01479 4.382 4.04612 4.382 5.25012ZM5.684 5.25012C5.684 4.41013 5.98733 3.69146 6.594 3.09413C7.20067 2.49679 7.91933 2.19346 8.75 2.18413C8.89933 2.18413 8.974 2.25879 8.974 2.40812C8.974 2.55746 8.89933 2.63212 8.75 2.63212C8.022 2.63212 7.40133 2.88412 6.888 3.38812C6.37467 3.89212 6.12267 4.51279 6.132 5.25012C6.132 5.39946 6.05733 5.47413 5.908 5.47413C5.75867 5.47413 5.684 5.39946 5.684 5.25012Z" fill="#D6283D"/>
</svg>
