<?xml version="1.0" encoding="utf-8"?>
<!-- Generator: Adobe Illustrator 23.1.1, SVG Export Plug-In . SVG Version: 6.00 Build 0)  -->
<svg version="1.1" id="Camada_1" xmlns="http://www.w3.org/2000/svg" xmlns:xlink="http://www.w3.org/1999/xlink" x="0px" y="0px"
	 viewBox="0 0 25 20" style="enable-background:new 0 0 25 20;" xml:space="preserve">
<style type="text/css">
	.st0{fill:#FF0000;}
	.st1{fill:#006600;}
	.st2{fill-rule:evenodd;clip-rule:evenodd;fill:#FFFF00;}
	.st3{fill:#FFFFFF;}
	.st4{fill:#FFFF00;}
	.st5{fill:#003399;}
</style>
<g>
	<rect y="1.15" class="st0" width="25" height="16.67"/>
	<rect y="1.15" class="st1" width="10" height="16.67"/>
	<g>
		<g>
			<path class="st2" d="M13.26,12.07C12,12.03,6.23,8.42,6.19,7.85l0.32-0.53c0.57,0.83,6.47,4.34,7.05,4.21L13.26,12.07"/>
			<path d="M13.26,12.08C13.26,12.08,13.26,12.08,13.26,12.08c-0.67-0.02-2.57-1.04-4-1.91c-0.81-0.5-1.57-1-2.13-1.41
				C6.7,8.44,6.19,8.03,6.18,7.85c0,0,0,0,0-0.01L6.5,7.31c0,0,0.01-0.01,0.01-0.01c0,0,0.01,0,0.01,0.01
				c0.29,0.43,1.98,1.54,3.52,2.46c1.82,1.08,3.26,1.8,3.52,1.75c0,0,0.01,0,0.01,0s0,0.01,0,0.01l-0.3,0.53
				C13.27,12.07,13.26,12.08,13.26,12.08z M6.2,7.85c0.03,0.26,1.32,1.23,3.07,2.3c1.42,0.86,3.31,1.88,3.98,1.9l0.29-0.51
				c-0.36,0.02-2.01-0.86-3.51-1.75C8.5,8.89,6.83,7.78,6.51,7.34L6.2,7.85z"/>
		</g>
		<g>
			<path class="st2" d="M6.44,7.25c-0.11,0.3,1.51,1.3,3.45,2.49c1.95,1.18,3.63,1.92,3.75,1.81c0.01-0.01,0.06-0.11,0.06-0.11
				c-0.02,0.04-0.08,0.05-0.17,0.02c-0.53-0.15-1.9-0.78-3.6-1.81c-1.7-1.03-3.18-1.98-3.41-2.38C6.51,7.24,6.5,7.19,6.5,7.15
				l-0.01,0L6.45,7.23L6.44,7.25L6.44,7.25L6.44,7.25z M13.29,12.08c-0.02,0.04-0.06,0.04-0.14,0.03c-0.47-0.05-1.9-0.75-3.59-1.76
				C7.6,9.18,5.97,8.1,6.15,7.82L6.2,7.74l0.01,0c-0.16,0.48,3.21,2.4,3.4,2.52c1.95,1.21,3.59,1.91,3.73,1.73L13.29,12.08
				L13.29,12.08L13.29,12.08z"/>
			<path d="M13.21,12.13c-0.02,0-0.04,0-0.06,0c-0.48-0.05-1.92-0.76-3.59-1.76C7.32,9.03,6.2,8.23,6.13,7.91
				c-0.01-0.03,0-0.06,0.01-0.09l0.05-0.08c0,0,0.01-0.01,0.01-0.01l0.01,0c0,0,0.01,0,0.01,0.01c0,0,0,0.01,0,0.01
				c-0.12,0.37,1.99,1.68,3.27,2.43c0.07,0.04,0.11,0.07,0.13,0.08c1.92,1.19,3.58,1.91,3.72,1.73c0,0,0.01-0.01,0.02,0
				c0.01,0,0.01,0.01,0,0.02l-0.05,0.09c0,0,0,0,0,0C13.28,12.12,13.25,12.13,13.21,12.13z M6.19,7.78L6.16,7.83
				C6.15,7.85,6.14,7.87,6.15,7.9c0.07,0.31,1.19,1.11,3.42,2.44c1.67,1,3.11,1.7,3.59,1.76c0.07,0.01,0.11,0.01,0.12-0.03
				c0,0,0,0,0,0l0.03-0.05c-0.34,0.1-2.17-0.8-3.71-1.75c-0.02-0.01-0.06-0.04-0.13-0.08C7.29,8.91,6.19,8.1,6.19,7.78z
				 M13.61,11.57c-0.33,0-2.02-0.79-3.72-1.82c-2.1-1.28-3.57-2.2-3.46-2.5c0,0,0,0,0,0l0.01-0.01l0.05-0.09
				c0,0,0.01-0.01,0.01-0.01l0.01,0c0,0,0.01,0,0.01,0c0,0,0,0.01,0,0.01c0,0.04,0.01,0.09,0.02,0.11c0.24,0.43,1.95,1.5,3.4,2.38
				c1.6,0.97,3.02,1.65,3.6,1.81c0.08,0.02,0.13,0.02,0.16-0.02c0,0,0,0,0.01-0.01c0,0,0.01,0,0.01,0.01
				c0.01,0.01,0.01,0.01-0.05,0.11l-0.01,0.01c0,0,0,0,0,0C13.65,11.57,13.63,11.57,13.61,11.57z M6.45,7.25
				C6.34,7.56,8.23,8.71,9.9,9.73c2,1.22,3.61,1.9,3.74,1.81l0.01-0.01c0.01-0.02,0.02-0.04,0.03-0.05
				c-0.03,0.01-0.08,0.01-0.14-0.01c-0.58-0.17-2-0.84-3.6-1.81C7.15,7.98,6.65,7.5,6.52,7.27C6.5,7.25,6.49,7.22,6.49,7.18
				L6.45,7.25z"/>
		</g>
		<g>
			<path class="st2" d="M10.01,8.2c1.26-0.01,2.81-0.17,3.71-0.53l-0.19-0.31C12.99,7.65,11.43,7.84,10,7.87
				C8.3,7.85,7.1,7.7,6.5,7.29L6.32,7.63C7.42,8.09,8.55,8.19,10.01,8.2"/>
			<path d="M10.01,8.21C10.01,8.21,10.01,8.21,10.01,8.21c-1.46,0-2.58-0.1-3.69-0.57c0,0-0.01,0-0.01-0.01c0,0,0-0.01,0-0.01
				l0.18-0.33c0,0,0-0.01,0.01-0.01c0,0,0.01,0,0.01,0C7.07,7.66,8.18,7.84,10,7.86c1.85-0.04,3.12-0.29,3.52-0.51
				c0.01,0,0.01,0,0.02,0l0.19,0.31c0,0,0,0.01,0,0.01c0,0,0,0.01-0.01,0.01C13.1,7.93,11.8,8.2,10.01,8.21
				C10.01,8.21,10.01,8.21,10.01,8.21z M6.34,7.62c1.1,0.46,2.22,0.56,3.67,0.56c0,0,0,0,0,0c1.78-0.01,3.07-0.28,3.69-0.52
				l-0.18-0.29C13.11,7.59,11.84,7.85,10,7.88C8.18,7.87,7.07,7.68,6.5,7.31L6.34,7.62z"/>
		</g>
		<g>
			<path class="st2" d="M13.77,7.68c-0.03,0.05-0.61,0.25-1.47,0.4C11.71,8.16,10.95,8.24,10,8.24c-0.9,0-1.64-0.06-2.2-0.14
				c-0.9-0.14-1.37-0.34-1.54-0.41c0.02-0.03,0.03-0.06,0.04-0.09c0.5,0.2,0.96,0.32,1.51,0.4C8.38,8.08,9.1,8.15,10,8.15
				c0.94,0,1.7-0.08,2.28-0.17c0.88-0.14,1.36-0.33,1.43-0.41L13.77,7.68L13.77,7.68L13.77,7.68z M13.6,7.36
				c-0.1,0.08-0.57,0.25-1.41,0.38c-0.56,0.08-1.27,0.15-2.18,0.15c-0.86,0-1.57-0.06-2.1-0.14c-0.85-0.11-1.3-0.31-1.47-0.37
				C6.46,7.36,6.48,7.33,6.49,7.3c0.13,0.06,0.56,0.24,1.43,0.36C8.45,7.74,9.15,7.8,10.01,7.8c0.9,0,1.61-0.07,2.16-0.15
				c0.84-0.12,1.29-0.33,1.36-0.39L13.6,7.36L13.6,7.36L13.6,7.36z"/>
			<path d="M9.99,8.25c-0.77,0-1.5-0.05-2.18-0.14c-0.87-0.14-1.35-0.33-1.52-0.4L6.26,7.71c0,0-0.01,0-0.01-0.01s0-0.01,0-0.01
				c0.01-0.01,0.01-0.03,0.02-0.04C6.28,7.64,6.29,7.62,6.3,7.6C6.3,7.6,6.31,7.6,6.31,7.6C6.79,7.79,7.25,7.91,7.82,8
				c0.68,0.09,1.41,0.14,2.16,0.14c0.01,0,0.01,0,0.02,0c0.77,0,1.52-0.06,2.27-0.17c0.87-0.14,1.36-0.32,1.42-0.41
				c0,0,0.01,0,0.01,0c0,0,0.01,0,0.01,0.01l0.06,0.11c0,0,0,0.01,0,0.01c0,0,0,0,0,0c-0.05,0.06-0.65,0.26-1.48,0.4
				C11.58,8.2,10.81,8.25,10,8.25C10,8.25,9.99,8.25,9.99,8.25z M6.28,7.69L6.28,7.69c0.18,0.07,0.66,0.27,1.53,0.4
				c0.68,0.09,1.41,0.14,2.18,0.14c0.01,0,0.01,0,0.02,0c0.8,0,1.57-0.06,2.29-0.17c0.85-0.15,1.4-0.34,1.46-0.39L13.7,7.59
				c-0.1,0.09-0.54,0.26-1.43,0.4C11.52,8.1,10.77,8.16,10,8.16c-0.01,0-0.01,0-0.02,0c-0.75,0-1.48-0.05-2.16-0.14
				c-0.57-0.09-1.03-0.21-1.5-0.4C6.31,7.64,6.3,7.65,6.3,7.66C6.29,7.67,6.29,7.68,6.28,7.69z M9.99,7.9
				c-0.76,0-1.48-0.05-2.09-0.14c-0.75-0.1-1.19-0.26-1.4-0.34C6.48,7.41,6.46,7.4,6.44,7.4c0,0-0.01,0-0.01-0.01c0,0,0-0.01,0-0.01
				C6.45,7.35,6.46,7.32,6.48,7.3c0-0.01,0.01-0.01,0.02,0c0.07,0.04,0.49,0.23,1.42,0.36c0.42,0.06,1.12,0.13,2.07,0.13
				c0.01,0,0.01,0,0.02,0c0.98,0,1.7-0.09,2.16-0.15c0.81-0.11,1.28-0.32,1.36-0.38c0,0,0.01,0,0.01,0c0,0,0.01,0,0.01,0.01
				l0.06,0.1c0,0,0,0,0,0.01c0,0,0,0.01,0,0.01c-0.09,0.08-0.56,0.25-1.41,0.38c-0.71,0.1-1.43,0.15-2.18,0.15
				C10.01,7.9,10,7.9,9.99,7.9z M6.46,7.38C6.48,7.39,6.49,7.39,6.52,7.4c0.21,0.08,0.64,0.25,1.39,0.34
				c0.61,0.09,1.34,0.14,2.1,0.14c0.75,0,1.46-0.05,2.18-0.15c0.83-0.13,1.29-0.29,1.4-0.37l-0.05-0.08
				c-0.09,0.06-0.53,0.27-1.36,0.38C11.72,7.72,11,7.81,10.01,7.81c-0.01,0-0.01,0-0.02,0c-0.96,0-1.66-0.07-2.08-0.13
				C7.02,7.55,6.59,7.36,6.5,7.32C6.48,7.34,6.47,7.36,6.46,7.38z M13.6,7.36L13.6,7.36L13.6,7.36z"/>
		</g>
		<g>
			<path class="st2" d="M5.87,9.72c0.77,0.42,2.5,0.63,4.12,0.64c1.48,0,3.41-0.23,4.14-0.61l-0.02-0.42
				c-0.23,0.35-2.3,0.69-4.13,0.68c-1.84-0.01-3.54-0.3-4.11-0.66L5.87,9.72"/>
			<path d="M10.02,10.37c-0.01,0-0.01,0-0.02,0c-2.2-0.02-3.58-0.34-4.13-0.64c0,0-0.01-0.01-0.01-0.01l0-0.37c0,0,0-0.01,0.01-0.01
				c0,0,0.01,0,0.01,0c0.57,0.37,2.3,0.65,4.11,0.66c1.82,0.01,3.9-0.33,4.12-0.67c0,0,0.01-0.01,0.01-0.01
				c0.01,0,0.01,0.01,0.01,0.01l0.02,0.42c0,0,0,0.01-0.01,0.01C13.41,10.14,11.48,10.37,10.02,10.37z M5.88,9.71
				c0.56,0.3,1.92,0.62,4.11,0.64c0.01,0,0.01,0,0.02,0c1.45,0,3.37-0.23,4.1-0.61L14.1,9.36c-0.31,0.35-2.31,0.67-4.12,0.66
				c-1.79-0.01-3.5-0.29-4.1-0.66L5.88,9.71z"/>
		</g>
		<g>
			<path class="st2" d="M14.17,9.66l0,0.1c-0.11,0.13-0.79,0.33-1.64,0.46c-0.65,0.1-1.5,0.17-2.55,0.17c-1,0-1.8-0.07-2.42-0.17
				c-0.98-0.14-1.61-0.39-1.73-0.47l0-0.12c0.38,0.25,1.4,0.44,1.75,0.49c0.62,0.09,1.41,0.17,2.41,0.17c1.05,0,1.89-0.07,2.54-0.17
				C13.13,10.04,14,9.81,14.17,9.66L14.17,9.66L14.17,9.66z M14.17,9.3l0,0.1c-0.11,0.13-0.79,0.33-1.64,0.46
				c-0.65,0.1-1.5,0.17-2.55,0.17c-1,0-1.8-0.07-2.42-0.17C6.57,9.73,5.95,9.48,5.82,9.41l0-0.12c0.38,0.25,1.4,0.44,1.75,0.49
				c0.62,0.09,1.41,0.17,2.41,0.17c1.05,0,1.89-0.07,2.54-0.17C13.13,9.69,14,9.46,14.17,9.3L14.17,9.3L14.17,9.3z"/>
			<path d="M9.98,10.41c-0.89,0-1.7-0.06-2.42-0.17C6.61,10.1,5.96,9.86,5.81,9.77c0,0-0.01-0.01-0.01-0.01l0-0.12
				c0,0,0-0.01,0.01-0.01c0,0,0.01,0,0.01,0c0.38,0.25,1.43,0.44,1.74,0.49c0.71,0.11,1.52,0.17,2.41,0.17
				c0.93,0,1.79-0.06,2.54-0.17c0.61-0.09,1.48-0.32,1.65-0.47c0,0,0.01,0,0.01,0c0,0,0.01,0.01,0.01,0.01l0,0.1c0,0,0,0.01,0,0.01
				c-0.11,0.13-0.81,0.33-1.65,0.47C11.77,10.35,10.91,10.41,9.98,10.41z M5.83,9.75c0.11,0.06,0.71,0.32,1.72,0.46
				c0.72,0.11,1.53,0.17,2.42,0.17c0.94,0,1.8-0.06,2.55-0.17c0.82-0.13,1.52-0.33,1.63-0.46l0-0.07c-0.21,0.15-1.05,0.37-1.64,0.46
				c-0.75,0.12-1.61,0.17-2.54,0.17c-0.88,0-1.69-0.06-2.41-0.17c-0.4-0.06-1.35-0.24-1.73-0.48L5.83,9.75z M9.98,10.05
				c-0.89,0-1.7-0.06-2.42-0.17C6.61,9.75,5.97,9.51,5.81,9.42c0,0-0.01-0.01-0.01-0.01l0-0.12c0,0,0-0.01,0.01-0.01
				c0,0,0.01,0,0.01,0c0.38,0.25,1.43,0.44,1.74,0.49c0.71,0.11,1.52,0.17,2.41,0.17c0.93,0,1.79-0.06,2.54-0.17
				c0.61-0.09,1.48-0.32,1.65-0.47c0,0,0.01,0,0.01,0c0,0,0.01,0,0.01,0.01c0,0,0,0,0,0.01l0,0.1c0,0,0,0.01,0,0.01
				c-0.11,0.13-0.81,0.33-1.65,0.47C11.77,9.99,10.91,10.05,9.98,10.05z M5.83,9.4c0.11,0.06,0.71,0.32,1.72,0.46
				c0.72,0.11,1.53,0.17,2.42,0.17c0.94,0,1.79-0.06,2.55-0.17c0.82-0.13,1.52-0.33,1.63-0.46l0-0.07
				c-0.21,0.15-1.05,0.37-1.64,0.46c-0.75,0.12-1.61,0.17-2.54,0.17c-0.88,0-1.69-0.06-2.41-0.17C7.26,9.74,6.23,9.56,5.83,9.31
				L5.83,9.4z"/>
		</g>
		<g>
			<path class="st2" d="M9.99,11.99c-1.78-0.01-3.31-0.49-3.63-0.56l0.24,0.37c0.57,0.24,2.06,0.6,3.41,0.56
				c1.35-0.04,2.54-0.14,3.37-0.55l0.24-0.38C13.05,11.69,11.12,11.99,9.99,11.99"/>
			<path d="M9.8,12.37c-1.28,0-2.65-0.33-3.21-0.56c0,0,0,0-0.01,0l-0.24-0.37c0,0,0-0.01,0-0.01c0,0,0.01-0.01,0.01,0
				c0.04,0.01,0.09,0.02,0.16,0.04c0.52,0.14,1.9,0.51,3.47,0.52c1.13,0,3.07-0.31,3.63-0.57c0,0,0.01,0,0.01,0c0,0,0,0.01,0,0.01
				l-0.24,0.38c0,0,0,0,0,0c-0.87,0.42-2.14,0.52-3.38,0.55C9.94,12.37,9.87,12.37,9.8,12.37z M6.6,11.79
				c0.59,0.25,2.08,0.59,3.41,0.55c1.24-0.04,2.5-0.13,3.36-0.55l0.22-0.35c-0.6,0.26-2.49,0.55-3.6,0.56c0,0,0,0,0,0
				C8.42,12,7.04,11.62,6.52,11.48c-0.05-0.01-0.1-0.03-0.13-0.04L6.6,11.79z"/>
		</g>
		<g>
			<path class="st2" d="M13.47,11.72c-0.04,0.05-0.07,0.11-0.11,0.16c-0.39,0.14-1.01,0.28-1.27,0.33
				c-0.53,0.11-1.36,0.19-2.09,0.19c-1.58-0.02-2.87-0.33-3.48-0.6l-0.05-0.08l0.01-0.01l0.08,0.03c1.08,0.39,2.3,0.54,3.45,0.57
				c0.73,0,1.46-0.08,2.05-0.19c0.91-0.18,1.27-0.32,1.39-0.38L13.47,11.72L13.47,11.72L13.47,11.72z M13.68,11.37
				C13.68,11.38,13.68,11.38,13.68,11.37c-0.02,0.05-0.05,0.09-0.08,0.14c-0.21,0.08-0.78,0.24-1.61,0.36
				c-0.55,0.07-0.89,0.15-1.98,0.17c-2.04-0.05-3.36-0.45-3.68-0.55L6.29,11.4c1.18,0.31,2.39,0.52,3.73,0.55
				c1-0.02,1.42-0.09,1.96-0.17c0.97-0.15,1.46-0.31,1.6-0.36c0,0,0-0.01-0.01-0.01L13.68,11.37L13.68,11.37L13.68,11.37z"/>
			<path d="M9.99,12.41c-1.61-0.02-2.88-0.34-3.48-0.6c0,0,0,0-0.01,0l-0.05-0.08c0,0,0-0.01,0-0.01l0.01-0.01c0,0,0.01-0.01,0.01,0
				l0.08,0.03c0.96,0.35,2.12,0.54,3.44,0.57c0.01,0,0.02,0,0.03,0c0.79,0,1.53-0.1,2.02-0.19c1.01-0.2,1.31-0.34,1.38-0.38
				l0.03-0.02c0,0,0.01,0,0.01,0c0,0,0,0.01,0,0.01c-0.04,0.06-0.07,0.11-0.11,0.16c0,0,0,0-0.01,0c-0.39,0.14-1.01,0.28-1.28,0.33
				C11.53,12.33,10.69,12.41,9.99,12.41z M6.52,11.79c0.9,0.39,2.39,0.58,3.47,0.59c0.7,0,1.54-0.08,2.09-0.19
				c0.27-0.04,0.88-0.19,1.27-0.33c0.03-0.04,0.05-0.08,0.08-0.12c-0.09,0.05-0.41,0.18-1.38,0.38c-0.49,0.09-1.23,0.19-2.02,0.19
				c-0.01,0-0.02,0-0.03,0c-1.32-0.03-2.48-0.22-3.45-0.57l-0.07-0.03L6.52,11.79z M10.01,12.05C8.19,12,6.92,11.69,6.33,11.5
				c0,0-0.01,0-0.01-0.01l-0.05-0.09c0,0,0-0.01,0-0.01c0,0,0.01-0.01,0.01,0c1.35,0.35,2.54,0.53,3.72,0.55
				c0.89-0.02,1.33-0.08,1.79-0.14c0.06-0.01,0.11-0.02,0.17-0.02c0.94-0.15,1.43-0.3,1.59-0.35l0,0c0,0,0,0,0,0
				c0,0,0-0.01,0.01-0.01l0.11-0.04c0.01,0,0.01,0,0.01,0c0,0,0,0,0,0c0,0,0,0,0,0c0,0,0,0.01,0,0.01
				c-0.03,0.04-0.05,0.09-0.08,0.14c0,0,0,0-0.01,0c-0.28,0.1-0.87,0.26-1.61,0.36c-0.08,0.01-0.16,0.02-0.23,0.03
				C11.32,11.98,10.94,12.03,10.01,12.05z M6.34,11.48c0.59,0.19,1.85,0.5,3.67,0.55c0.93-0.02,1.31-0.07,1.74-0.14
				c0.07-0.01,0.15-0.02,0.23-0.03c0.73-0.1,1.32-0.26,1.6-0.36c0.02-0.04,0.04-0.07,0.07-0.11l-0.07,0.03c0,0,0,0,0,0.01
				c0,0,0,0.01-0.01,0.01l-0.02,0.01c-0.16,0.05-0.65,0.21-1.59,0.35c-0.06,0.01-0.12,0.02-0.17,0.02c-0.46,0.06-0.9,0.13-1.79,0.15
				c-1.18-0.02-2.36-0.19-3.7-0.54L6.34,11.48z"/>
		</g>
		<g>
			<path class="st2" d="M13.7,9.39c0.01,1.17-0.59,2.22-1.08,2.69c-0.68,0.66-1.59,1.08-2.65,1.1c-1.18,0.02-2.3-0.75-2.6-1.09
				c-0.58-0.66-1.06-1.5-1.08-2.64c0.07-1.28,0.57-2.17,1.3-2.78s1.7-0.91,2.51-0.89c0.93,0.02,2.02,0.48,2.77,1.39
				C13.38,7.77,13.59,8.41,13.7,9.39L13.7,9.39z M9.99,5.37c2.27,0,4.14,1.85,4.14,4.11c0,2.27-1.87,4.11-4.14,4.11
				s-4.12-1.85-4.12-4.11S7.71,5.37,9.99,5.37"/>
			<path d="M9.99,13.61c-2.28,0-4.13-1.85-4.13-4.12c0-2.27,1.85-4.12,4.13-4.12c1.1,0,2.14,0.43,2.93,1.21
				c0.79,0.78,1.22,1.82,1.22,2.91s-0.43,2.13-1.22,2.91C12.13,13.18,11.09,13.61,9.99,13.61z M9.99,5.38
				c-2.27,0-4.11,1.84-4.11,4.1c0,2.26,1.84,4.1,4.11,4.1c1.1,0,2.13-0.43,2.91-1.2c0.78-0.78,1.21-1.81,1.21-2.9
				c0-1.09-0.43-2.12-1.21-2.9C12.11,5.81,11.08,5.38,9.99,5.38z M9.92,13.19c-1.21,0-2.29-0.8-2.55-1.09
				c-0.71-0.81-1.07-1.67-1.08-2.64C6.36,8.27,6.8,7.33,7.6,6.66c0.68-0.57,1.64-0.91,2.51-0.89c1.03,0.03,2.09,0.56,2.78,1.39
				c0.47,0.57,0.7,1.19,0.82,2.22c0,0,0,0,0,0c0.01,1.13-0.56,2.19-1.08,2.7c-0.73,0.7-1.65,1.08-2.66,1.1
				C9.96,13.19,9.94,13.19,9.92,13.19z M10.03,5.79c-0.84,0-1.76,0.34-2.41,0.89c-0.8,0.67-1.23,1.6-1.3,2.77
				c0.01,0.96,0.36,1.82,1.07,2.63c0.26,0.3,1.36,1.11,2.59,1.08c1-0.02,1.91-0.4,2.64-1.1c0.52-0.5,1.08-1.55,1.07-2.68
				c-0.12-1.02-0.35-1.64-0.82-2.21c-0.69-0.83-1.74-1.36-2.76-1.38C10.08,5.79,10.06,5.79,10.03,5.79z"/>
		</g>
		<g>
			<path class="st2" d="M10,5.36c2.27,0,4.13,1.85,4.13,4.13c0,2.27-1.85,4.13-4.13,4.13c-2.27,0-4.13-1.85-4.13-4.13
				S7.72,5.36,10,5.36L10,5.36z M5.96,9.48c0,2.22,1.82,4.04,4.03,4.04c2.21,0,4.03-1.82,4.03-4.04c0-2.22-1.82-4.04-4.03-4.04
				S5.96,7.27,5.96,9.48L5.96,9.48z"/>
			<path d="M10,13.62c-2.28,0-4.14-1.86-4.14-4.14c0-2.28,1.86-4.14,4.14-4.14s4.14,1.86,4.14,4.14
				C14.13,11.77,12.28,13.62,10,13.62z M10,5.37c-2.27,0-4.11,1.85-4.11,4.11c0,2.27,1.85,4.11,4.11,4.11s4.11-1.85,4.11-4.11
				C14.11,7.22,12.26,5.37,10,5.37z M10,13.53c-1.07,0-2.09-0.42-2.86-1.19c-0.77-0.77-1.19-1.78-1.19-2.86s0.42-2.09,1.19-2.86
				C7.91,5.86,8.92,5.44,10,5.44c1.07,0,2.09,0.42,2.86,1.19c0.77,0.77,1.19,1.78,1.19,2.86c0,1.08-0.42,2.09-1.19,2.86
				C12.08,13.11,11.07,13.53,10,13.53z M10,5.46c-1.07,0-2.08,0.42-2.84,1.18C6.39,7.41,5.97,8.42,5.97,9.48s0.42,2.08,1.18,2.84
				c0.76,0.76,1.77,1.18,2.84,1.18s2.08-0.42,2.84-1.18c0.76-0.76,1.18-1.77,1.18-2.84c0-1.07-0.42-2.08-1.18-2.84
				C12.07,5.88,11.06,5.46,10,5.46z"/>
		</g>
		<g>
			<path class="st2" d="M10,5.7c2.07,0,3.78,1.7,3.78,3.78c0,2.08-1.71,3.78-3.78,3.78s-3.78-1.7-3.78-3.78
				C6.22,7.4,7.93,5.7,10,5.7L10,5.7z M6.31,9.48c0,2.03,1.67,3.69,3.69,3.69s3.69-1.66,3.69-3.69c0-2.03-1.67-3.69-3.69-3.69
				C7.98,5.79,6.31,7.45,6.31,9.48L6.31,9.48z"/>
			<path d="M10,13.27c-1.01,0-1.96-0.4-2.67-1.11c-0.72-0.72-1.12-1.67-1.12-2.68c0-1.01,0.4-1.96,1.12-2.68
				C8.04,6.09,8.99,5.69,10,5.69c1.01,0,1.96,0.4,2.67,1.11c0.72,0.72,1.12,1.67,1.12,2.68c0,1.01-0.4,1.96-1.12,2.68
				C11.96,12.88,11.01,13.27,10,13.27z M10,5.71c-1,0-1.94,0.39-2.66,1.11C6.63,7.53,6.23,8.48,6.23,9.48c0,1,0.39,1.95,1.11,2.66
				C8.06,12.86,9,13.25,10,13.25s1.94-0.39,2.66-1.11c0.72-0.71,1.11-1.66,1.11-2.66c0-1-0.39-1.95-1.11-2.66
				C11.94,6.11,11,5.71,10,5.71z M10,13.18c-0.98,0-1.91-0.39-2.61-1.09c-0.7-0.7-1.09-1.63-1.09-2.61c0-0.98,0.39-1.91,1.09-2.61
				c0.7-0.7,1.63-1.09,2.61-1.09s1.91,0.39,2.61,1.09c0.7,0.7,1.09,1.63,1.09,2.61c0,0.98-0.39,1.91-1.09,2.61
				C11.91,12.8,10.98,13.18,10,13.18z M10,5.8c-0.98,0-1.9,0.38-2.59,1.08c-0.7,0.7-1.08,1.62-1.08,2.6c0,0.98,0.38,1.9,1.08,2.6
				c0.7,0.7,1.62,1.08,2.59,1.08s1.9-0.38,2.59-1.08c0.7-0.7,1.08-1.62,1.08-2.6c0-0.98-0.38-1.9-1.08-2.6
				C11.9,6.19,10.98,5.8,10,5.8z"/>
		</g>
		<g>
			<path class="st2" d="M10.17,5.34H9.81l0,8.29h0.35L10.17,5.34z"/>
			<path d="M10.17,13.64H9.81c-0.01,0-0.01-0.01-0.01-0.01l0-8.29c0,0,0-0.01,0-0.01c0,0,0.01,0,0.01,0h0.35
				c0.01,0,0.01,0.01,0.01,0.01l0,8.29C10.18,13.64,10.18,13.64,10.17,13.64C10.17,13.64,10.17,13.64,10.17,13.64z M9.82,13.62h0.33
				l0-8.27H9.82L9.82,13.62z"/>
		</g>
		<g>
			<path class="st2" d="M10.13,5.3h0.09l0,8.39h-0.09L10.13,5.3L10.13,5.3z M9.78,5.3h0.09l0,8.39H9.78L9.78,5.3L9.78,5.3z"/>
			<path d="M9.87,13.69H9.78c-0.01,0-0.01-0.01-0.01-0.01V5.3c0-0.01,0.01-0.01,0.01-0.01h0.09c0.01,0,0.01,0.01,0.01,0.01l0,8.39
				C9.88,13.68,9.88,13.69,9.87,13.69C9.88,13.69,9.87,13.69,9.87,13.69z M9.79,13.67h0.07l0-8.36H9.79L9.79,13.67z M10.22,13.69
				h-0.09c-0.01,0-0.01-0.01-0.01-0.01l0-8.39c0,0,0-0.01,0-0.01c0,0,0.01,0,0.01,0h0.09c0.01,0,0.01,0.01,0.01,0.01l0,8.39
				C10.23,13.68,10.23,13.69,10.22,13.69C10.23,13.69,10.22,13.69,10.22,13.69z M10.14,13.67h0.07l0-8.36h-0.07L10.14,13.67z"/>
		</g>
		<g>
			<path class="st2" d="M14.12,9.64V9.34l-0.25-0.23l-1.42-0.38l-2.04-0.21L7.96,8.65L6.21,9.06L5.86,9.33v0.31l0.89-0.4L8.88,8.9
				h2.04l1.5,0.17l1.04,0.25L14.12,9.64z"/>
			<path d="M14.12,9.66C14.12,9.66,14.12,9.66,14.12,9.66l-0.67-0.33l-1.04-0.25l-1.5-0.17l-2.04,0L6.75,9.24l-0.89,0.4
				c0,0-0.01,0-0.01,0c0,0-0.01-0.01-0.01-0.01V9.33c0,0,0-0.01,0-0.01L6.2,9.05c0,0,0,0,0,0l1.75-0.42l2.46-0.13l2.04,0.21
				l1.42,0.38c0,0,0,0,0.01,0l0.25,0.23c0,0,0,0.01,0,0.01v0.31C14.14,9.65,14.13,9.65,14.12,9.66C14.13,9.66,14.13,9.66,14.12,9.66
				z M10.92,8.89l1.5,0.17l1.04,0.25l0.65,0.32V9.34l-0.24-0.23l-1.41-0.37l-2.04-0.21L7.96,8.66L6.21,9.07L5.87,9.33v0.28
				l0.88-0.39c0,0,0,0,0,0l2.12-0.33L10.92,8.89z"/>
		</g>
		<g>
			<path class="st2" d="M10,8.85c0.97,0,1.92,0.09,2.67,0.24c0.77,0.15,1.32,0.35,1.5,0.57l0,0.11c-0.22-0.27-0.96-0.47-1.52-0.58
				C11.91,9.03,10.97,8.94,10,8.94c-1.02,0-1.97,0.1-2.71,0.24C6.7,9.3,5.92,9.53,5.82,9.76V9.65c0.05-0.16,0.64-0.39,1.46-0.56
				C8.02,8.94,8.97,8.85,10,8.85L10,8.85z M10,8.49c0.97,0,1.92,0.09,2.67,0.24c0.77,0.15,1.32,0.35,1.5,0.57l0,0.11
				c-0.22-0.27-0.96-0.47-1.52-0.58C11.91,8.68,10.97,8.58,10,8.59c-1.02,0-1.97,0.1-2.7,0.24C6.73,8.93,5.91,9.18,5.82,9.4V9.29
				c0.05-0.16,0.65-0.4,1.46-0.56C8.02,8.59,8.97,8.49,10,8.49L10,8.49z"/>
			<path d="M5.82,9.77C5.82,9.77,5.82,9.77,5.82,9.77c-0.01,0-0.01-0.01-0.01-0.01V9.65c0,0,0,0,0,0c0.06-0.17,0.67-0.41,1.47-0.57
				C8.06,8.92,9.03,8.84,10,8.83l0,0.01l0-0.01c0.93,0,1.87,0.08,2.67,0.24c0.81,0.16,1.33,0.36,1.51,0.57c0,0,0,0,0,0.01l0,0.11
				c0,0.01,0,0.01-0.01,0.01c0,0-0.01,0-0.01,0c-0.24-0.29-1.05-0.48-1.51-0.58c-0.78-0.15-1.71-0.24-2.62-0.24
				c-0.01,0-0.02,0-0.03,0c-0.96,0-1.92,0.09-2.71,0.24C6.65,9.32,5.92,9.55,5.83,9.76C5.83,9.77,5.82,9.77,5.82,9.77z M10.03,8.93
				c0.91,0,1.84,0.08,2.63,0.24c0.45,0.09,1.24,0.28,1.51,0.56l0-0.07c-0.18-0.21-0.7-0.4-1.49-0.56c-0.79-0.15-1.73-0.24-2.64-0.24
				c-0.01,0-0.02,0-0.03,0c-0.97,0-1.93,0.09-2.72,0.24C6.63,9.23,5.9,9.47,5.83,9.65v0.07c0.17-0.24,0.98-0.45,1.46-0.55
				C8.08,9.01,9.04,8.93,10,8.93C10.01,8.93,10.02,8.93,10.03,8.93z M5.82,9.42C5.82,9.42,5.82,9.42,5.82,9.42
				c-0.01,0-0.01-0.01-0.01-0.01V9.29c0,0,0,0,0,0C5.87,9.12,6.5,8.87,7.28,8.72C8.06,8.57,9.03,8.48,10,8.48v0
				c0.92,0,1.87,0.08,2.67,0.24c0.81,0.16,1.33,0.36,1.51,0.57c0,0,0,0,0,0.01l0,0.11c0,0.01,0,0.01-0.01,0.01c0,0-0.01,0-0.01,0
				c-0.24-0.29-1.05-0.48-1.51-0.58C11.86,8.68,10.92,8.6,10,8.6c-0.95,0-1.91,0.09-2.7,0.24C6.65,8.96,5.91,9.2,5.83,9.41
				C5.83,9.41,5.82,9.42,5.82,9.42z M10.03,8.57c0.91,0,1.84,0.08,2.63,0.24c0.45,0.09,1.24,0.28,1.51,0.56l0-0.07
				c-0.18-0.21-0.7-0.4-1.49-0.56C11.87,8.59,10.92,8.5,10,8.5l0,0c-0.97,0-1.93,0.09-2.72,0.24c-0.84,0.16-1.4,0.41-1.45,0.55v0.07
				C6,9.13,6.78,8.91,7.29,8.82C8.08,8.66,9.05,8.57,10,8.57C10.01,8.57,10.02,8.57,10.03,8.57z"/>
		</g>
		<g>
			<path class="st2" d="M9.98,6.69c1.54-0.01,2.87,0.21,3.49,0.53l0.22,0.39c-0.53-0.29-1.98-0.59-3.71-0.54
				C8.57,7.07,7.06,7.22,6.31,7.62l0.27-0.45C7.19,6.85,8.66,6.69,9.98,6.69"/>
			<path d="M6.31,7.63C6.3,7.63,6.3,7.63,6.31,7.63C6.29,7.62,6.29,7.62,6.3,7.61l0.27-0.45c0,0,0,0,0,0
				c0.65-0.33,2.18-0.49,3.41-0.49c0,0,0,0,0,0c1.48-0.01,2.85,0.2,3.49,0.53c0,0,0,0,0,0L13.7,7.6c0,0,0,0.01,0,0.01
				c0,0-0.01,0-0.01,0c-0.56-0.3-2.01-0.58-3.7-0.54C7.67,7.09,6.69,7.43,6.31,7.63C6.31,7.63,6.31,7.63,6.31,7.63z M6.58,7.18
				L6.34,7.59c0.41-0.2,1.4-0.53,3.64-0.54c1.66-0.04,3.09,0.23,3.68,0.52l-0.2-0.35c-0.64-0.33-2-0.53-3.48-0.53c0,0,0,0,0,0
				C8.75,6.7,7.23,6.85,6.58,7.18z"/>
		</g>
		<g>
			<path class="st2" d="M10,7.01c0.88,0,1.72,0.05,2.39,0.17c0.63,0.12,1.22,0.29,1.31,0.39l0.07,0.12
				c-0.21-0.14-0.73-0.29-1.39-0.41C11.71,7.14,10.87,7.1,10,7.1c-0.99,0-1.76,0.05-2.42,0.16c-0.7,0.13-1.18,0.32-1.3,0.41
				l0.06-0.12c0.23-0.12,0.6-0.26,1.22-0.37C8.25,7.05,9.02,7.01,10,7.01L10,7.01L10,7.01z M10,6.65c0.84,0,1.67,0.04,2.31,0.16
				c0.51,0.1,1.01,0.25,1.2,0.39l0.1,0.15C13.44,7.18,12.82,7,12.27,6.9C11.63,6.79,10.84,6.75,10,6.74c-0.88,0-1.69,0.06-2.32,0.17
				c-0.6,0.11-0.99,0.25-1.15,0.36l0.09-0.13C6.83,7.02,7.2,6.91,7.66,6.82C8.3,6.71,9.11,6.66,10,6.65L10,6.65z"/>
			<path d="M13.77,7.69C13.77,7.69,13.77,7.69,13.77,7.69c-0.21-0.13-0.71-0.28-1.39-0.41c-0.59-0.11-1.4-0.17-2.38-0.16
				c-0.99,0-1.75,0.05-2.41,0.16c-0.69,0.13-1.17,0.31-1.29,0.4c0,0-0.01,0-0.01,0c0,0-0.01-0.01,0-0.01l0.06-0.12
				c0,0,0,0,0.01-0.01c0.31-0.16,0.71-0.28,1.22-0.37C8.18,7.05,8.89,7,10,6.99c0,0,0,0,0,0c0.94,0,1.77,0.06,2.4,0.17
				c0.64,0.12,1.23,0.29,1.32,0.39l0.07,0.12C13.78,7.68,13.78,7.68,13.77,7.69C13.78,7.69,13.77,7.69,13.77,7.69z M10.06,7.09
				c0.96,0,1.74,0.06,2.32,0.16c0.64,0.12,1.13,0.26,1.35,0.39l-0.04-0.08c-0.08-0.09-0.68-0.26-1.3-0.38
				C11.77,7.07,10.94,7.02,10,7.02c0,0,0,0,0,0C8.89,7.02,8.18,7.07,7.57,7.19c-0.5,0.09-0.9,0.21-1.21,0.37L6.31,7.63
				c0.17-0.1,0.63-0.26,1.27-0.38C8.24,7.14,9.01,7.09,10,7.09C10.02,7.09,10.04,7.09,10.06,7.09z M13.6,7.37
				C13.6,7.37,13.6,7.37,13.6,7.37c-0.18-0.19-0.83-0.36-1.33-0.45c-0.58-0.1-1.32-0.15-2.27-0.16c-0.92,0-1.72,0.06-2.32,0.17
				c-0.53,0.1-0.96,0.23-1.15,0.35c0,0-0.01,0-0.01,0s0-0.01,0-0.01L6.6,7.14c0,0,0,0,0,0C6.83,7.01,7.19,6.9,7.66,6.81
				C8.26,6.7,9.07,6.64,10,6.64l0,0h0c0.92,0,1.71,0.05,2.31,0.16c0.55,0.11,1.03,0.26,1.2,0.39c0,0,0,0,0,0l0.1,0.15
				C13.62,7.36,13.61,7.36,13.6,7.37C13.61,7.37,13.6,7.37,13.6,7.37z M10,6.73c0.95,0.01,1.69,0.06,2.27,0.16
				c0.46,0.08,1.04,0.23,1.28,0.4L13.5,7.21c-0.17-0.13-0.65-0.28-1.19-0.39c-0.6-0.11-1.39-0.16-2.31-0.16l0,0
				c-0.93,0-1.74,0.06-2.34,0.17C7.2,6.93,6.84,7.03,6.61,7.15L6.56,7.23C6.77,7.12,7.18,7,7.67,6.9C8.27,6.79,9.08,6.73,10,6.73z"
				/>
		</g>
		<g>
			<path class="st2" d="M12.05,11.2c-0.76-0.14-1.52-0.16-2.05-0.16c-2.56,0.03-3.39,0.53-3.49,0.68l-0.19-0.31
				c0.65-0.47,2.04-0.74,3.69-0.71c0.85,0.01,1.59,0.07,2.21,0.19L12.05,11.2"/>
			<path d="M6.51,11.73C6.51,11.73,6.51,11.73,6.51,11.73c0,0-0.01,0-0.01-0.01l-0.19-0.31c0-0.01,0-0.01,0-0.02
				c0.65-0.47,2.04-0.74,3.7-0.71c0.9,0.01,1.63,0.08,2.22,0.19c0,0,0.01,0,0.01,0.01c0,0,0,0.01,0,0.01l-0.18,0.31
				c0,0.01-0.01,0.01-0.01,0.01c-0.6-0.11-1.29-0.16-2.05-0.16C7.51,11.08,6.63,11.56,6.51,11.73C6.52,11.73,6.52,11.73,6.51,11.73z
				 M6.34,11.41l0.18,0.29c0.07-0.08,0.3-0.23,0.82-0.37c0.66-0.18,1.58-0.28,2.67-0.29c0.76-0.01,1.44,0.04,2.04,0.15l0.16-0.29
				c-0.58-0.11-1.3-0.17-2.19-0.19C8.36,10.68,6.99,10.94,6.34,11.41z"/>
		</g>
		<g>
			<path class="st2" d="M9.98,11c0.71,0.01,1.41,0.04,2.08,0.17l-0.05,0.09c-0.63-0.12-1.29-0.16-2.03-0.16
				c-0.94-0.01-1.9,0.08-2.73,0.32c-0.26,0.07-0.7,0.24-0.74,0.38l-0.05-0.08c0.01-0.08,0.28-0.25,0.77-0.39
				C8.18,11.05,9.08,11.01,9.98,11L9.98,11L9.98,11z M10.01,10.64c0.74,0.01,1.5,0.05,2.24,0.19l-0.05,0.09
				c-0.67-0.13-1.31-0.18-2.18-0.19c-0.95,0-1.95,0.07-2.87,0.33c-0.29,0.09-0.8,0.27-0.82,0.42L6.28,11.4
				c0.01-0.13,0.45-0.31,0.85-0.42C8.05,10.71,9.06,10.64,10.01,10.64L10.01,10.64z"/>
			<path d="M6.51,11.81C6.51,11.81,6.51,11.81,6.51,11.81l-0.06-0.09c0,0,0-0.01,0-0.01c0.02-0.09,0.29-0.26,0.78-0.4
				c0.91-0.26,1.76-0.32,2.75-0.33c0,0,0,0,0,0c0.68,0.01,1.4,0.04,2.09,0.17c0,0,0.01,0,0.01,0.01c0,0,0,0.01,0,0.01l-0.05,0.09
				c0,0-0.01,0.01-0.01,0.01c-0.59-0.11-1.25-0.16-2.03-0.16c-1.04-0.01-1.96,0.1-2.73,0.32c-0.28,0.08-0.69,0.25-0.73,0.37
				C6.52,11.8,6.52,11.81,6.51,11.81C6.51,11.81,6.51,11.81,6.51,11.81z M6.48,11.71l0.03,0.06c0.08-0.14,0.49-0.3,0.74-0.37
				c0.77-0.22,1.69-0.33,2.73-0.32c0.78,0,1.44,0.05,2.03,0.15l0.04-0.07c-0.68-0.13-1.4-0.15-2.07-0.16c0,0,0,0,0,0
				c-0.99,0.01-1.84,0.06-2.75,0.32C6.75,11.47,6.5,11.64,6.48,11.71z M6.33,11.5C6.33,11.5,6.32,11.5,6.33,11.5l-0.06-0.09
				c0,0,0,0,0-0.01c0.01-0.18,0.66-0.38,0.86-0.43c0.79-0.23,1.7-0.34,2.89-0.34c0,0,0,0,0,0c0.72,0.01,1.49,0.05,2.24,0.19
				c0,0,0.01,0,0.01,0.01c0,0,0,0.01,0,0.01l-0.05,0.09c0,0-0.01,0.01-0.01,0.01c-0.71-0.14-1.39-0.18-2.18-0.19
				c-1.18,0-2.08,0.11-2.86,0.33c-0.38,0.11-0.8,0.29-0.81,0.41C6.34,11.5,6.34,11.5,6.33,11.5C6.33,11.5,6.33,11.5,6.33,11.5z
				 M6.3,11.4l0.03,0.06c0.08-0.18,0.74-0.38,0.82-0.4c0.78-0.23,1.69-0.33,2.87-0.34c0.79,0.01,1.47,0.05,2.18,0.19l0.04-0.07
				c-0.74-0.15-1.51-0.18-2.22-0.19c-1.18,0-2.09,0.11-2.88,0.34C6.64,11.14,6.31,11.3,6.3,11.4z"/>
		</g>
		<g>
			<path class="st2" d="M13.65,11.45l-0.31,0.48l-0.88-0.78l-2.29-1.54L7.58,8.19L6.24,7.73L6.53,7.2l0.1-0.05l0.83,0.21l2.75,1.42
				l1.58,1l1.33,0.96l0.54,0.62L13.65,11.45z"/>
			<path d="M13.34,11.94C13.34,11.94,13.34,11.94,13.34,11.94l-0.89-0.79l-2.29-1.54L7.58,8.2L6.24,7.74c0,0-0.01,0-0.01-0.01
				s0-0.01,0-0.01l0.29-0.53c0,0,0,0,0,0l0.1-0.05c0,0,0.01,0,0.01,0l0.83,0.21l2.75,1.42l1.58,1l1.33,0.96l0.54,0.63
				c0,0,0,0.01,0,0.01l-0.02,0.1c0,0,0,0,0,0l-0.31,0.48C13.35,11.94,13.35,11.94,13.34,11.94C13.34,11.94,13.34,11.94,13.34,11.94z
				 M6.26,7.72l1.33,0.45l2.59,1.42l2.29,1.54l0.87,0.78l0.3-0.46l0.02-0.09l-0.54-0.62l-1.33-0.96l-1.58-1L7.45,7.37L6.63,7.16
				L6.54,7.21L6.26,7.72z M13.65,11.45L13.65,11.45L13.65,11.45z"/>
		</g>
		<g>
			<path class="st2" d="M6.19,7.74c0.24-0.16,1.96,0.61,3.77,1.7c1.8,1.09,3.53,2.33,3.37,2.56l-0.05,0.08l-0.02,0.02
				c0.01,0,0.03-0.04,0-0.12c-0.08-0.25-1.3-1.23-3.33-2.45C7.96,8.35,6.31,7.64,6.14,7.84L6.19,7.74L6.19,7.74L6.19,7.74z
				 M13.71,11.45c0.15-0.29-1.45-1.5-3.44-2.68C8.24,7.62,6.77,6.94,6.5,7.14L6.44,7.25c0,0.01,0-0.01,0.01-0.02
				c0.05-0.04,0.13-0.04,0.17-0.04C7.08,7.2,8.4,7.8,10.25,8.86c0.81,0.47,3.42,2.15,3.41,2.62c0,0.04,0,0.05-0.01,0.07L13.71,11.45
				L13.71,11.45L13.71,11.45z"/>
			<path d="M13.26,12.12C13.26,12.12,13.26,12.11,13.26,12.12c-0.01-0.01-0.01-0.02-0.01-0.02l0,0c0,0,0.02-0.03-0.01-0.11
				c-0.08-0.26-1.37-1.27-3.32-2.45C7.85,8.3,6.3,7.67,6.15,7.85c0,0-0.01,0.01-0.02,0c-0.01,0-0.01-0.01,0-0.02l0.05-0.1
				c0,0,0,0,0,0c0.25-0.17,1.98,0.61,3.79,1.7c1.62,0.98,3.31,2.16,3.39,2.51c0.01,0.03,0,0.05-0.01,0.07l-0.05,0.08c0,0,0,0,0,0
				L13.26,12.12C13.27,12.11,13.27,12.11,13.26,12.12C13.27,12.12,13.27,12.12,13.26,12.12z M6.25,7.8c0.45,0,1.99,0.71,3.69,1.72
				c1.98,1.2,3.25,2.19,3.33,2.46c0.01,0.03,0.02,0.06,0.02,0.08L13.33,12c0.01-0.01,0.01-0.03,0.01-0.05
				c-0.07-0.34-1.79-1.54-3.37-2.5C8.2,8.39,6.45,7.6,6.2,7.75L6.17,7.81C6.19,7.8,6.22,7.8,6.25,7.8z M13.65,11.56
				C13.64,11.56,13.64,11.56,13.65,11.56c-0.01-0.01-0.01-0.01-0.01-0.02l0.01-0.01c0-0.01,0-0.02,0-0.04l0-0.01
				c0.01-0.47-2.65-2.17-3.4-2.61C8.4,7.82,7.08,7.21,6.62,7.2l-0.01,0c-0.04,0-0.11,0-0.15,0.04c-0.01,0-0.01,0.01-0.01,0.01
				c0,0.01-0.01,0.01-0.02,0.01c-0.01,0-0.01-0.01-0.01-0.01c0,0,0,0,0,0l0.06-0.11c0,0,0,0,0,0c0.32-0.24,2.23,0.75,3.78,1.63
				c1.8,1.06,3.61,2.37,3.45,2.69c0,0,0,0,0,0l-0.06,0.09C13.66,11.55,13.66,11.55,13.65,11.56C13.65,11.56,13.65,11.56,13.65,11.56
				z M6.62,7.18c0.46,0.01,1.79,0.62,3.63,1.67c0.53,0.31,3.43,2.11,3.42,2.63l0,0.01l0.03-0.05c0.14-0.27-1.37-1.44-3.44-2.66
				c-2.17-1.23-3.5-1.81-3.75-1.63L6.48,7.2C6.53,7.18,6.58,7.18,6.62,7.18L6.62,7.18z M13.71,11.45L13.71,11.45L13.71,11.45z"/>
		</g>
	</g>
	<g>
		<g>
			<path class="st3" d="M7.53,9.94c0,0.68,0.28,1.29,0.73,1.74c0.45,0.45,1.06,0.73,1.74,0.73c0.68,0,1.3-0.28,1.75-0.72
				c0.45-0.45,0.73-1.06,0.73-1.74h0v-3.3L7.52,6.64L7.53,9.94L7.53,9.94L7.53,9.94z"/>
			<path d="M9.99,12.43c-0.65,0-1.28-0.26-1.75-0.74c-0.47-0.47-0.73-1.08-0.73-1.74h0l0-3.33l4.98,0.01l0,3.31
				c0,0.66-0.26,1.29-0.73,1.75C11.28,12.17,10.66,12.43,9.99,12.43z M7.54,9.93l0,0.01c0,0.65,0.26,1.26,0.72,1.73
				c0.47,0.47,1.09,0.73,1.73,0.73c0.66,0,1.27-0.26,1.74-0.72c0.46-0.46,0.72-1.07,0.72-1.72l0-0.01V6.66L7.54,6.65L7.54,9.93z"/>
		</g>
		<g>
			<path class="st0" d="M7.62,9.94L7.62,9.94c0,0.65,0.27,1.24,0.7,1.67c0.43,0.43,1.03,0.7,1.68,0.7c0.65,0,1.25-0.27,1.68-0.69
				c0.43-0.43,0.7-1.02,0.7-1.67h0v-3.2l-4.74,0L7.62,9.94 M11.41,7.7l0,2.04l0,0.22h0c0,0.06,0,0.12-0.01,0.18
				c-0.04,0.32-0.19,0.6-0.41,0.82c-0.26,0.26-0.61,0.41-1,0.41c-0.39,0-0.73-0.16-0.99-0.42c-0.26-0.26-0.42-0.62-0.42-1l0-2.25
				L11.41,7.7L11.41,7.7L11.41,7.7z"/>
			<path d="M9.99,12.32c-0.63,0-1.23-0.25-1.68-0.7c-0.45-0.45-0.7-1.05-0.7-1.67l0.02,0v0c0,0.62,0.25,1.21,0.7,1.66
				c0.45,0.45,1.04,0.69,1.67,0.69c0.63,0,1.22-0.24,1.67-0.69c0.44-0.44,0.69-1.03,0.69-1.65l0-0.01V6.76l-4.72,0l0,3.19H7.61
				l0-3.21l4.76,0l0,3.21c0,0.63-0.25,1.23-0.7,1.68C11.22,12.07,10.63,12.32,9.99,12.32z M9.99,11.38c-0.37,0-0.73-0.15-1-0.42
				c-0.27-0.27-0.42-0.63-0.42-1.01l0-2.26h0.01l2.84,0.01l0.01,0.01l0,0l0,2.04l0,0.22c0,0.06,0,0.12-0.01,0.18
				c-0.04,0.31-0.18,0.6-0.41,0.83C10.73,11.23,10.37,11.38,9.99,11.38z M8.59,7.71l0,2.24c0,0.37,0.15,0.73,0.41,0.99
				c0.27,0.27,0.62,0.42,0.99,0.42c0.37,0,0.73-0.15,0.99-0.41c0.23-0.23,0.37-0.51,0.4-0.81c0.01-0.05,0.01-0.12,0.01-0.18l0-0.22
				l0-2.03L8.59,7.71z"/>
		</g>
		<g id="castle3">
			<g id="castle">
				<path class="st4" d="M7.92,7.58C7.93,7.35,8.09,7.3,8.09,7.3c0,0,0.18,0.06,0.18,0.29L7.92,7.58"/>
				<g>
					<path class="st4" d="M7.78,7.3L7.76,7.57l0.17,0c0-0.22,0.17-0.26,0.17-0.25c0,0,0.17,0.05,0.17,0.25h0.17L8.41,7.3L7.78,7.3
						L7.78,7.3L7.78,7.3z"/>
					<path d="M7.94,7.58l-0.19,0l0.03-0.29l0.64,0l0.03,0.29H8.26l0-0.01c0-0.2-0.16-0.24-0.16-0.24c0,0-0.16,0.03-0.16,0.24
						L7.94,7.58z M8.28,7.56h0.15L8.4,7.31l-0.28,0c0.02,0.01,0.04,0.02,0.07,0.04C8.23,7.39,8.27,7.45,8.28,7.56z M7.77,7.55
						l0.15,0c0-0.12,0.05-0.18,0.09-0.21c0.02-0.02,0.04-0.03,0.05-0.03l-0.27,0L7.77,7.55z"/>
				</g>
				<g>
					<path class="st4" d="M7.74,7.57h0.71c0.01,0,0.03,0.01,0.03,0.03c0,0.02-0.01,0.03-0.03,0.03H7.74c-0.01,0-0.03-0.01-0.03-0.03
						C7.72,7.58,7.73,7.57,7.74,7.57z"/>
					<path d="M8.45,7.64H7.74c-0.02,0-0.04-0.02-0.04-0.04c0-0.02,0.02-0.04,0.04-0.04h0.71c0.02,0,0.04,0.02,0.04,0.04
						C8.49,7.62,8.47,7.64,8.45,7.64z M7.74,7.58c-0.01,0-0.02,0.01-0.02,0.02c0,0.01,0.01,0.02,0.02,0.02h0.71
						c0.01,0,0.02-0.01,0.02-0.02c0-0.01-0.01-0.02-0.02-0.02H7.74z"/>
				</g>
				<g>
					<path class="st4" d="M8,7.57C8,7.43,8.09,7.39,8.1,7.39c0,0,0.1,0.04,0.1,0.18H8"/>
					<path d="M8.2,7.58H7.99l0-0.01c0-0.09,0.04-0.14,0.07-0.16C8.07,7.39,8.09,7.38,8.1,7.38c0,0,0,0,0,0
						c0.01,0,0.11,0.05,0.11,0.19L8.2,7.58z M8.01,7.55h0.17c0-0.11-0.07-0.15-0.09-0.16C8.08,7.41,8.02,7.45,8.01,7.55z"/>
				</g>
				<g>
					<path class="st4" d="M7.76,7.19h0.68c0.01,0,0.03,0.01,0.03,0.03c0,0.02-0.01,0.03-0.03,0.03H7.76c-0.01,0-0.03-0.01-0.03-0.03
						C7.73,7.2,7.74,7.19,7.76,7.19z"/>
					<path d="M8.44,7.26H7.76c-0.02,0-0.04-0.02-0.04-0.04s0.02-0.04,0.04-0.04h0.68c0.02,0,0.04,0.02,0.04,0.04
						S8.46,7.26,8.44,7.26z M7.76,7.2c-0.01,0-0.02,0.01-0.02,0.02c0,0.01,0.01,0.02,0.02,0.02h0.68c0.01,0,0.02-0.01,0.02-0.02
						S8.44,7.2,8.44,7.2H7.76z"/>
				</g>
				<g>
					<path class="st4" d="M7.77,7.25h0.65c0.01,0,0.02,0.01,0.02,0.03c0,0.02-0.01,0.03-0.02,0.03H7.77c-0.01,0-0.02-0.01-0.02-0.03
						C7.75,7.26,7.76,7.25,7.77,7.25z"/>
					<path d="M8.42,7.32H7.77c-0.02,0-0.04-0.02-0.04-0.04c0-0.02,0.02-0.04,0.04-0.04h0.65c0.02,0,0.04,0.02,0.04,0.04
						C8.46,7.3,8.44,7.32,8.42,7.32z M7.77,7.26c-0.01,0-0.01,0.01-0.01,0.02c0,0.01,0.01,0.02,0.01,0.02h0.65
						c0.01,0,0.01-0.01,0.01-0.02c0-0.01-0.01-0.02-0.01-0.02H7.77z"/>
				</g>
				<g>
					<path class="st4" d="M7.98,6.81l0.05,0v0.04h0.04V6.81l0.05,0v0.04h0.04V6.81h0.05l0,0.08c0,0.01-0.01,0.02-0.02,0.02H8.01
						c-0.01,0-0.02-0.01-0.02-0.02L7.98,6.81L7.98,6.81L7.98,6.81z"/>
					<path d="M8.19,6.92H8.01c-0.02,0-0.03-0.01-0.03-0.03l0-0.09l0.01,0l0.06,0v0.04h0.02V6.8l0.07,0v0.04h0.02V6.8h0.07l0,0.09
						C8.22,6.91,8.21,6.92,8.19,6.92z M7.99,6.82l0,0.07C7.99,6.9,8,6.9,8.01,6.9h0.18c0.01,0,0.01,0,0.01-0.01l0-0.07H8.17v0.04
						H8.11V6.82l-0.03,0v0.04H8.02V6.82L7.99,6.82z"/>
				</g>
				<g>
					<path class="st4" d="M8.17,6.92l0.01,0.27l-0.18,0l0.01-0.27L8.17,6.92"/>
					<path d="M8.2,7.2L8,7.2l0.01-0.29l0.18,0L8.2,7.2z M8.02,7.18l0.16,0L8.16,6.93l-0.14,0L8.02,7.18z"/>
				</g>
				<g>
					<path id="cp1_1_" class="st4" d="M7.96,7.05l0.01,0.14l-0.17,0l0-0.14L7.96,7.05L7.96,7.05L7.96,7.05z"/>
					<path d="M7.78,7.2l0.01-0.17h0.18L7.97,7.2L7.78,7.2z M7.8,7.06l0,0.12l0.15,0l0-0.12L7.8,7.06z"/>
				</g>
				<g>
					<g>
						<path class="st4" d="M8.4,7.05L8.4,7.19l-0.17,0l0-0.14L8.4,7.05L8.4,7.05L8.4,7.05z"/>
						<path d="M8.22,7.2l0.01-0.17h0.18L8.41,7.2L8.22,7.2z M8.25,7.06l0,0.12l0.15,0l0-0.12L8.25,7.06z"/>
					</g>
				</g>
				<g>
					<path id="cp2_1_" class="st4" d="M7.76,6.94l0.05,0v0.04h0.04V6.94l0.05,0v0.04h0.04V6.94l0.05,0l0,0.08
						c0,0.01-0.01,0.02-0.02,0.02H7.79c-0.01,0-0.02-0.01-0.02-0.02L7.76,6.94L7.76,6.94L7.76,6.94z"/>
					<path d="M7.97,7.06H7.79c-0.02,0-0.03-0.01-0.03-0.03l0-0.09l0.01-0.01l0,0l0.06,0v0.04h0.02V6.93l0.07,0v0.04h0.02V6.93
						l0.07,0l0,0.09C8,7.04,7.98,7.06,7.97,7.06z M7.77,6.95l0,0.07c0,0.01,0.01,0.01,0.01,0.01h0.18c0.01,0,0.01,0,0.01-0.01
						l0-0.07l-0.03,0v0.04H7.89V6.95l-0.03,0v0.04H7.8V6.95L7.77,6.95z"/>
				</g>
				<g>
					<g>
						<path class="st4" d="M8.2,6.94l0.05,0v0.04h0.04V6.94l0.05,0v0.04h0.04V6.94l0.05,0l0,0.08c0,0.01-0.01,0.02-0.02,0.02H8.23
							c-0.01,0-0.02-0.01-0.02-0.02L8.2,6.94L8.2,6.94L8.2,6.94z"/>
						<path d="M8.41,7.06H8.23c-0.02,0-0.03-0.01-0.03-0.03l0-0.09L8.2,6.93l0,0l0.06,0v0.04h0.02V6.93l0.07,0v0.04h0.02V6.93
							l0.07,0l0,0.09C8.44,7.04,8.43,7.06,8.41,7.06z M8.21,6.95l0,0.07c0,0.01,0.01,0.01,0.01,0.01h0.18c0.01,0,0.01,0,0.01-0.01
							l0-0.07l-0.03,0v0.04H8.33V6.95l-0.03,0v0.04H8.24V6.95L8.21,6.95z"/>
					</g>
				</g>
				<path d="M8.08,7.01c0-0.03,0.04-0.03,0.04,0v0.06H8.08L8.08,7.01"/>
				<path id="cp3" d="M7.86,7.1c0-0.03,0.03-0.03,0.03,0v0.05H7.86L7.86,7.1"/>
				<g>
					<path d="M8.3,7.1c0-0.03,0.03-0.03,0.03,0v0.05H8.3L8.3,7.1"/>
				</g>
			</g>
			<g>
				<g>
					<path class="st4" d="M7.92,9.51c0.01-0.23,0.17-0.28,0.17-0.29c0,0,0.18,0.06,0.18,0.29L7.92,9.51"/>
					<g>
						<path class="st4" d="M7.78,9.23L7.76,9.5l0.17,0c0-0.22,0.17-0.26,0.17-0.25c0,0,0.17,0.05,0.17,0.25h0.17L8.41,9.23
							L7.78,9.23L7.78,9.23L7.78,9.23z"/>
						<path d="M7.94,9.51l-0.19,0l0.03-0.29l0.64,0l0.03,0.29H8.26l0-0.01c0-0.2-0.16-0.24-0.16-0.24c0,0-0.16,0.03-0.16,0.24
							L7.94,9.51z M8.28,9.49h0.15L8.4,9.24l-0.28,0c0.02,0.01,0.04,0.02,0.07,0.04C8.23,9.32,8.27,9.38,8.28,9.49z M7.77,9.48
							l0.15,0c0-0.12,0.05-0.18,0.09-0.21c0.02-0.02,0.04-0.03,0.05-0.03l-0.27,0L7.77,9.48z"/>
					</g>
					<g>
						<path class="st4" d="M7.74,9.5h0.71c0.01,0,0.03,0.01,0.03,0.03c0,0.02-0.01,0.03-0.03,0.03H7.74c-0.01,0-0.03-0.01-0.03-0.03
							C7.72,9.51,7.73,9.5,7.74,9.5z"/>
						<path d="M8.45,9.57H7.74c-0.02,0-0.04-0.02-0.04-0.04c0-0.02,0.02-0.04,0.04-0.04h0.71c0.02,0,0.04,0.02,0.04,0.04
							C8.49,9.55,8.47,9.57,8.45,9.57z M7.74,9.51c-0.01,0-0.02,0.01-0.02,0.02c0,0.01,0.01,0.02,0.02,0.02h0.71
							c0.01,0,0.02-0.01,0.02-0.02c0-0.01-0.01-0.02-0.02-0.02H7.74z"/>
					</g>
					<g>
						<path class="st4" d="M8,9.5C8,9.36,8.09,9.32,8.1,9.32c0,0,0.1,0.04,0.1,0.18H8"/>
						<path d="M8.2,9.51H7.99l0-0.01c0-0.09,0.04-0.14,0.07-0.16C8.07,9.32,8.09,9.31,8.1,9.31c0,0,0,0,0,0
							C8.1,9.31,8.2,9.36,8.2,9.5L8.2,9.51z M8.01,9.48h0.17c0-0.11-0.07-0.15-0.09-0.16C8.08,9.34,8.02,9.38,8.01,9.48z"/>
					</g>
					<g>
						<path class="st4" d="M7.76,9.12h0.68c0.01,0,0.03,0.01,0.03,0.03c0,0.02-0.01,0.03-0.03,0.03H7.76
							c-0.01,0-0.03-0.01-0.03-0.03C7.73,9.13,7.74,9.12,7.76,9.12z"/>
						<path d="M8.44,9.19H7.76c-0.02,0-0.04-0.02-0.04-0.04c0-0.02,0.02-0.04,0.04-0.04h0.68c0.02,0,0.04,0.02,0.04,0.04
							C8.47,9.17,8.46,9.19,8.44,9.19z M7.76,9.13c-0.01,0-0.02,0.01-0.02,0.02c0,0.01,0.01,0.02,0.02,0.02h0.68
							c0.01,0,0.02-0.01,0.02-0.02c0-0.01-0.01-0.02-0.02-0.02H7.76z"/>
					</g>
					<g>
						<path class="st4" d="M7.77,9.18h0.65c0.01,0,0.02,0.01,0.02,0.03c0,0.02-0.01,0.03-0.02,0.03H7.77
							c-0.01,0-0.02-0.01-0.02-0.03C7.75,9.19,7.76,9.18,7.77,9.18z"/>
						<path d="M8.42,9.25H7.77c-0.02,0-0.04-0.02-0.04-0.04c0-0.02,0.02-0.04,0.04-0.04h0.65c0.02,0,0.04,0.02,0.04,0.04
							C8.46,9.23,8.44,9.25,8.42,9.25z M7.77,9.19c-0.01,0-0.01,0.01-0.01,0.02c0,0.01,0.01,0.02,0.01,0.02h0.65
							c0.01,0,0.01-0.01,0.01-0.02c0-0.01-0.01-0.02-0.01-0.02H7.77z"/>
					</g>
					<g>
						<path class="st4" d="M7.98,8.74l0.05,0v0.04h0.04V8.74l0.05,0v0.04h0.04V8.74h0.05l0,0.08c0,0.01-0.01,0.02-0.02,0.02H8.01
							c-0.01,0-0.02-0.01-0.02-0.02L7.98,8.74L7.98,8.74L7.98,8.74z"/>
						<path d="M8.19,8.85H8.01c-0.02,0-0.03-0.01-0.03-0.03l0-0.09l0.01,0l0.06,0v0.04h0.02V8.73l0.07,0v0.04h0.02V8.73h0.07l0,0.09
							C8.22,8.84,8.21,8.85,8.19,8.85z M7.99,8.75l0,0.07c0,0.01,0.01,0.01,0.01,0.01h0.18c0.01,0,0.01,0,0.01-0.01l0-0.07H8.17
							v0.04H8.11V8.75l-0.03,0v0.04H8.02V8.75L7.99,8.75z"/>
					</g>
					<g>
						<path class="st4" d="M8.17,8.85l0.01,0.27l-0.18,0l0.01-0.27L8.17,8.85"/>
						<path d="M8.2,9.13l-0.2,0l0.01-0.29l0.18,0L8.2,9.13z M8.02,9.11l0.16,0L8.16,8.86l-0.14,0L8.02,9.11z"/>
					</g>
					<g>
						<path class="st4" d="M7.96,8.98l0.01,0.14l-0.17,0l0-0.14L7.96,8.98L7.96,8.98L7.96,8.98z"/>
						<path d="M7.78,9.13l0.01-0.17h0.18l0.01,0.17L7.78,9.13z M7.8,8.99l0,0.12l0.15,0l0-0.12L7.8,8.99z"/>
					</g>
					<g>
						<g>
							<path class="st4" d="M8.4,8.98L8.4,9.12l-0.17,0l0-0.14L8.4,8.98L8.4,8.98L8.4,8.98z"/>
							<path d="M8.22,9.13l0.01-0.17h0.18l0.01,0.17L8.22,9.13z M8.25,8.99l0,0.12l0.15,0l0-0.12L8.25,8.99z"/>
						</g>
					</g>
					<g>
						<path class="st4" d="M7.76,8.87l0.05,0v0.04h0.04V8.87l0.05,0v0.04h0.04V8.87l0.05,0l0,0.08c0,0.01-0.01,0.02-0.02,0.02H7.79
							c-0.01,0-0.02-0.01-0.02-0.02L7.76,8.87L7.76,8.87L7.76,8.87z"/>
						<path d="M7.97,8.99H7.79c-0.02,0-0.03-0.01-0.03-0.03l0-0.09l0.01,0l0,0l0.06,0V8.9h0.02V8.86l0.07,0V8.9h0.02V8.86l0.07,0
							l0,0.09C8,8.97,7.98,8.99,7.97,8.99z M7.77,8.88l0,0.07c0,0.01,0.01,0.01,0.01,0.01h0.18c0.01,0,0.01,0,0.01-0.01l0-0.07
							l-0.03,0v0.04H7.89V8.88l-0.03,0v0.04H7.8V8.88L7.77,8.88z"/>
					</g>
					<g>
						<g>
							<path class="st4" d="M8.2,8.87l0.05,0v0.04h0.04V8.87l0.05,0v0.04h0.04V8.87l0.05,0l0,0.08c0,0.01-0.01,0.02-0.02,0.02H8.23
								c-0.01,0-0.02-0.01-0.02-0.02L8.2,8.87L8.2,8.87L8.2,8.87z"/>
							<path d="M8.41,8.99H8.23c-0.02,0-0.03-0.01-0.03-0.03l0-0.09l0.01,0l0,0l0.06,0V8.9h0.02V8.86l0.07,0V8.9h0.02V8.86l0.07,0
								l0,0.09C8.44,8.97,8.43,8.99,8.41,8.99z M8.21,8.88l0,0.07c0,0.01,0.01,0.01,0.01,0.01h0.18c0.01,0,0.01,0,0.01-0.01l0-0.07
								l-0.03,0v0.04H8.33V8.88l-0.03,0v0.04H8.24V8.88L8.21,8.88z"/>
						</g>
					</g>
					<path d="M8.08,8.94c0-0.03,0.04-0.03,0.04,0V9H8.08L8.08,8.94"/>
					<path d="M7.86,9.03c0-0.03,0.03-0.03,0.03,0v0.05H7.86L7.86,9.03"/>
					<g>
						<path d="M8.3,9.03C8.3,9,8.34,9,8.33,9.03v0.05H8.3L8.3,9.03"/>
					</g>
				</g>
			</g>
			<g transform="matrix(0.70460892,-0.70959585,0.70959585,0.70460892,-35.341459,275.10898)">
				<g>
					<path class="st4" d="M8.68,11.52c-0.16-0.17-0.08-0.32-0.08-0.32c0,0,0.17-0.08,0.33,0.08L8.68,11.52"/>
					<g>
						<path class="st4" d="M8.38,11.42l0.17,0.21l0.12-0.12c-0.15-0.16-0.06-0.3-0.06-0.3c0,0,0.15-0.08,0.3,0.06l0.12-0.12
							l-0.21-0.17L8.38,11.42L8.38,11.42L8.38,11.42z"/>
						<path d="M8.55,11.64l-0.18-0.22l0-0.01l0.45-0.46l0.23,0.18l-0.14,0.14L8.9,11.27c-0.14-0.14-0.29-0.06-0.29-0.06l0,0
							c0,0-0.09,0.13,0.06,0.28l0.01,0.01L8.55,11.64z M8.39,11.42l0.15,0.19l0.11-0.11c-0.08-0.08-0.09-0.16-0.08-0.22
							c0-0.02,0.01-0.05,0.01-0.06L8.39,11.42z M8.71,11.17c0.05,0,0.12,0.02,0.19,0.08l0.11-0.11l-0.19-0.15l-0.19,0.2
							c0.02-0.01,0.05-0.01,0.08-0.02C8.71,11.17,8.71,11.17,8.71,11.17z"/>
					</g>
					<g>
						<path class="st4" d="M8.54,11.64l0.5-0.5c0.01-0.01,0.03-0.01,0.04,0c0.01,0.01,0.01,0.03,0,0.04l-0.5,0.5
							c-0.01,0.01-0.03,0.01-0.04,0C8.53,11.67,8.53,11.65,8.54,11.64z"/>
						<path d="M8.57,11.7c-0.01,0-0.02,0-0.03-0.01c-0.02-0.02-0.02-0.04,0-0.06l0.5-0.5c0.01-0.01,0.02-0.01,0.03-0.01
							c0.01,0,0.02,0.01,0.03,0.01c0.01,0.01,0.01,0.02,0.01,0.03c0,0.01,0,0.02-0.01,0.02l-0.5,0.5C8.59,11.7,8.58,11.7,8.57,11.7z
							 M8.55,11.65c-0.01,0.01,0,0.02,0,0.03c0.01,0.01,0.02,0.01,0.03,0l0.5-0.5c0,0,0-0.01,0-0.01c0-0.01,0-0.01-0.01-0.02
							c0,0-0.01-0.01-0.02-0.01c0,0-0.01,0-0.01,0L8.55,11.65z"/>
					</g>
					<g>
						<path class="st4" d="M8.72,11.46c-0.1-0.1-0.06-0.19-0.06-0.19c0,0,0.1-0.04,0.19,0.05L8.72,11.46"/>
						<path d="M8.71,11.46c-0.06-0.06-0.07-0.12-0.07-0.17c0-0.01,0-0.04,0.01-0.04l0,0c0,0,0.11-0.04,0.21,0.06l0.01,0.01
							l-0.14,0.14L8.71,11.46L8.71,11.46z M8.67,11.27c-0.01,0.02-0.02,0.09,0.05,0.17l0.12-0.12C8.76,11.25,8.69,11.27,8.67,11.27z
							"/>
					</g>
					<g>
						<path class="st4" d="M8.28,11.36l0.48-0.48c0.01-0.01,0.03-0.01,0.04,0c0.01,0.01,0.01,0.03,0,0.04L8.32,11.4
							c-0.01,0.01-0.03,0.01-0.04,0C8.27,11.39,8.27,11.37,8.28,11.36z"/>
						<path d="M8.31,11.42c-0.01,0-0.02,0-0.03-0.01c-0.02-0.02-0.02-0.04,0-0.05l0.48-0.48c0.01-0.01,0.02-0.01,0.02-0.01
							c0.01,0,0.02,0,0.03,0.01c0.02,0.02,0.02,0.04,0,0.05l-0.48,0.48C8.33,11.42,8.32,11.42,8.31,11.42z M8.78,10.89
							C8.78,10.89,8.77,10.89,8.78,10.89l-0.49,0.48c-0.01,0.01,0,0.02,0,0.02c0.01,0.01,0.02,0.01,0.02,0l0.48-0.48
							c0.01-0.01,0-0.02,0-0.02C8.79,10.89,8.78,10.89,8.78,10.89z"/>
					</g>
					<g>
						<path class="st4" d="M8.33,11.39l0.46-0.46c0.01-0.01,0.03-0.01,0.04,0c0.01,0.01,0.01,0.03,0,0.04l-0.46,0.46
							c-0.01,0.01-0.03,0.01-0.04,0C8.33,11.42,8.33,11.4,8.33,11.39z"/>
						<path d="M8.36,11.45C8.36,11.45,8.36,11.45,8.36,11.45c-0.01,0-0.02-0.01-0.03-0.01c-0.02-0.02-0.02-0.04,0-0.05l0.46-0.46
							c0.01-0.01,0.02-0.01,0.03-0.01c0.01,0,0.02,0.01,0.03,0.01c0.01,0.01,0.01,0.02,0.01,0.03c0,0.01,0,0.02-0.01,0.03
							l-0.46,0.46C8.38,11.45,8.37,11.45,8.36,11.45z M8.81,10.94C8.8,10.94,8.8,10.94,8.81,10.94L8.34,11.4
							c-0.01,0.01,0,0.02,0,0.02c0,0,0.01,0.01,0.01,0.01c0,0,0.01,0,0.01,0l0.46-0.46c0,0,0-0.01,0-0.01c0,0,0-0.01-0.01-0.01
							C8.82,10.94,8.81,10.94,8.81,10.94C8.81,10.94,8.81,10.94,8.81,10.94z"/>
					</g>
					<g>
						<path class="st4" d="M8.17,10.94l0.04-0.04l0.03,0.03l0.03-0.03l-0.03-0.03l0.04-0.04l0.03,0.03l0.03-0.03l-0.03-0.03
							l0.04-0.04l0.06,0.06c0.01,0.01,0.01,0.02,0,0.03l-0.13,0.13C8.25,11,8.24,11,8.23,10.99L8.17,10.94L8.17,10.94L8.17,10.94z"
							/>
						<path d="M8.24,11.01c-0.01,0-0.02,0-0.02-0.01l-0.07-0.07l0.05-0.05l0.03,0.03l0.01-0.01l-0.03-0.03l0.05-0.05l0.03,0.03
							l0.01-0.01l-0.03-0.03l0.05-0.05l0.07,0.07c0.01,0.01,0.01,0.03,0,0.05L8.27,11C8.26,11.01,8.25,11.01,8.24,11.01z
							 M8.18,10.94l0.05,0.05c0,0,0.01,0,0.02,0l0.13-0.13c0,0,0.01-0.01,0-0.02l-0.05-0.05l-0.02,0.02l0.03,0.03l-0.04,0.04
							l-0.03-0.03l-0.02,0.02l0.03,0.03l-0.04,0.04l-0.03-0.03L8.18,10.94z"/>
					</g>
					<g>
						<path class="st4" d="M8.38,10.88l0.2,0.18l-0.13,0.13l-0.18-0.2L8.38,10.88"/>
						<path d="M8.46,11.2l-0.2-0.21l0.12-0.12l0.21,0.2L8.46,11.2z M8.29,10.99l0.17,0.18l0.11-0.11l-0.18-0.17L8.29,10.99z"/>
					</g>
					<g>
						<path class="st4" d="M8.32,11.12l0.11,0.1L8.3,11.34l-0.1-0.11L8.32,11.12L8.32,11.12L8.32,11.12z"/>
						<path d="M8.3,11.36l-0.11-0.12l0.11-0.11h0l0.01-0.01l0.01,0.01l0.01-0.01l0.11,0.11L8.3,11.36z M8.22,11.24l0.09,0.09
							l0.11-0.11l-0.09-0.08L8.22,11.24z"/>
					</g>
					<g>
						<g>
							<path class="st4" d="M8.63,10.81l0.11,0.1l-0.12,0.12l-0.1-0.11L8.63,10.81L8.63,10.81L8.63,10.81z"/>
							<path d="M8.62,11.04L8.5,10.92l0.11-0.11h0l0.01-0.01l0.01,0.01l0.01-0.01l0.11,0.11L8.62,11.04z M8.53,10.92l0.09,0.09
								l0.11-0.11l-0.09-0.08L8.53,10.92z"/>
						</g>
					</g>
					<g>
						<path class="st4" d="M8.11,11.18l0.04-0.04l0.03,0.03l0.03-0.03l-0.03-0.03l0.04-0.04l0.03,0.03l0.03-0.03l-0.03-0.03
							l0.04-0.04l0.06,0.06c0.01,0.01,0.01,0.02,0,0.03L8.2,11.24c-0.01,0.01-0.02,0.01-0.03,0L8.11,11.18L8.11,11.18L8.11,11.18z"
							/>
						<path d="M8.18,11.26c-0.01,0-0.02,0-0.02-0.01L8.1,11.19v-0.01l0.05-0.05l0.03,0.03l0.01-0.01l-0.03-0.03l0.05-0.05l0.03,0.03
							l0.01-0.01l-0.03-0.03l0.05-0.05l0.07,0.07c0.01,0.01,0.01,0.03,0,0.05l-0.13,0.13C8.2,11.26,8.19,11.26,8.18,11.26z
							 M8.12,11.18l0.05,0.05c0,0,0.01,0,0.02,0l0.13-0.13c0,0,0.01-0.01,0-0.02l-0.05-0.05l-0.02,0.02l0.03,0.03l-0.04,0.04
							L8.2,11.1l-0.02,0.02l0.03,0.03l-0.04,0.04l-0.03-0.03L8.12,11.18z"/>
					</g>
					<g>
						<g>
							<path class="st4" d="M8.42,10.87l0.04-0.04l0.03,0.03l0.03-0.03l-0.03-0.03l0.04-0.04l0.03,0.03l0.03-0.03l-0.03-0.03
								l0.04-0.04l0.06,0.06c0.01,0.01,0.01,0.02,0,0.03l-0.13,0.13c-0.01,0.01-0.02,0.01-0.03,0L8.42,10.87L8.42,10.87L8.42,10.87z
								"/>
							<path d="M8.49,10.94c-0.01,0-0.02,0-0.02-0.01l-0.06-0.06v-0.01l0.05-0.05l0.03,0.03l0.01-0.01l-0.03-0.03l0.05-0.05
								l0.03,0.03l0.01-0.01l-0.03-0.03l0.05-0.05l0.07,0.07c0.01,0.01,0.01,0.03,0,0.05l-0.13,0.13
								C8.51,10.94,8.5,10.94,8.49,10.94z M8.43,10.87l0.05,0.05c0,0,0.01,0,0.02,0l0.13-0.13c0,0,0.01-0.01,0-0.02l-0.05-0.05
								l-0.02,0.02l0.03,0.03l-0.04,0.04l-0.03-0.03l-0.02,0.02l0.03,0.03l-0.04,0.04l-0.03-0.03L8.43,10.87z"/>
						</g>
					</g>
					<path d="M8.38,11.01c-0.02-0.02,0.01-0.04,0.03-0.03l0.05,0.05l-0.03,0.03L8.38,11.01"/>
					<path d="M8.29,11.23c-0.02-0.02,0.01-0.04,0.02-0.02l0.04,0.03l-0.02,0.02L8.29,11.23"/>
					<g>
						<path d="M8.6,10.91c-0.02-0.02,0.01-0.04,0.02-0.02l0.04,0.03l-0.02,0.02L8.6,10.91"/>
					</g>
				</g>
			</g>
		</g>
		<g>
			<g>
				<path class="st4" d="M9.83,7.58C9.83,7.35,10,7.3,10,7.3c0,0,0.18,0.06,0.18,0.29L9.83,7.58"/>
				<g>
					<path class="st4" d="M9.69,7.3L9.66,7.57l0.17,0C9.83,7.35,10,7.31,10,7.31c0,0,0.17,0.05,0.17,0.25h0.17L10.31,7.3L9.69,7.3
						L9.69,7.3L9.69,7.3z"/>
					<path d="M9.84,7.58l-0.19,0l0.03-0.29l0.64,0l0.03,0.29h-0.19l0-0.01c0-0.2-0.16-0.24-0.16-0.24c0,0-0.16,0.03-0.16,0.24
						L9.84,7.58z M10.18,7.56h0.15l-0.03-0.25l-0.28,0c0.02,0.01,0.04,0.02,0.07,0.04C10.13,7.39,10.18,7.45,10.18,7.56z M9.67,7.55
						l0.15,0c0-0.12,0.05-0.18,0.09-0.21c0.02-0.02,0.04-0.03,0.05-0.03l-0.27,0L9.67,7.55z"/>
				</g>
				<g>
					<path class="st4" d="M9.65,7.57h0.71c0.01,0,0.03,0.01,0.03,0.03c0,0.02-0.01,0.03-0.03,0.03H9.65c-0.01,0-0.03-0.01-0.03-0.03
						C9.62,7.58,9.63,7.57,9.65,7.57z"/>
					<path d="M10.35,7.64H9.65c-0.02,0-0.04-0.02-0.04-0.04c0-0.02,0.02-0.04,0.04-0.04h0.71c0.02,0,0.04,0.02,0.04,0.04
						C10.39,7.62,10.38,7.64,10.35,7.64z M9.65,7.58c-0.01,0-0.02,0.01-0.02,0.02c0,0.01,0.01,0.02,0.02,0.02h0.71
						c0.01,0,0.02-0.01,0.02-0.02c0-0.01-0.01-0.02-0.02-0.02H9.65z"/>
				</g>
				<g>
					<path class="st4" d="M9.91,7.57C9.91,7.43,10,7.39,10,7.39c0,0,0.1,0.04,0.1,0.18H9.91"/>
					<path d="M10.11,7.58h-0.2V7.57l-0.01,0c0-0.09,0.04-0.14,0.07-0.16C9.97,7.39,9.99,7.38,10,7.38l0,0
						c0.01,0,0.11,0.05,0.11,0.19L10.11,7.58z M9.92,7.55h0.17c0-0.11-0.07-0.15-0.09-0.16C9.98,7.41,9.92,7.45,9.92,7.55z"/>
				</g>
				<g>
					<path class="st4" d="M9.66,7.19h0.68c0.01,0,0.03,0.01,0.03,0.03c0,0.02-0.01,0.03-0.03,0.03H9.66c-0.01,0-0.03-0.01-0.03-0.03
						C9.64,7.2,9.65,7.19,9.66,7.19z"/>
					<path d="M10.34,7.26H9.66c-0.02,0-0.04-0.02-0.04-0.04s0.02-0.04,0.04-0.04h0.68c0.02,0,0.04,0.02,0.04,0.04
						S10.36,7.26,10.34,7.26z M9.66,7.2c-0.01,0-0.02,0.01-0.02,0.02c0,0.01,0.01,0.02,0.02,0.02h0.68c0.01,0,0.02-0.01,0.02-0.02
						S10.35,7.2,10.34,7.2H9.66z"/>
				</g>
				<g>
					<path class="st4" d="M9.68,7.25h0.65c0.01,0,0.02,0.01,0.02,0.03c0,0.02-0.01,0.03-0.02,0.03H9.68c-0.01,0-0.02-0.01-0.02-0.03
						C9.65,7.26,9.66,7.25,9.68,7.25z"/>
					<path d="M10.33,7.32H9.68c-0.02,0-0.04-0.02-0.04-0.04c0-0.02,0.02-0.04,0.04-0.04h0.65c0.02,0,0.04,0.02,0.04,0.04
						C10.36,7.3,10.34,7.32,10.33,7.32z M9.68,7.26c-0.01,0-0.01,0.01-0.01,0.02c0,0.01,0.01,0.02,0.01,0.02h0.65
						c0.01,0,0.01-0.01,0.01-0.02c0-0.01-0.01-0.02-0.01-0.02H9.68z"/>
				</g>
				<g>
					<path class="st4" d="M9.89,6.81l0.05,0v0.04h0.04V6.81l0.05,0v0.04h0.04V6.81h0.05l0,0.08c0,0.01-0.01,0.02-0.02,0.02H9.91
						c-0.01,0-0.02-0.01-0.02-0.02L9.89,6.81L9.89,6.81L9.89,6.81z"/>
					<path d="M10.09,6.92H9.91c-0.02,0-0.03-0.01-0.03-0.03l0-0.09l0.01,0l0.06,0v0.04h0.02V6.8l0.07,0v0.04h0.02V6.8h0.07l0,0.09
						C10.13,6.91,10.11,6.92,10.09,6.92z M9.9,6.82l0,0.07C9.9,6.9,9.9,6.9,9.91,6.9h0.18c0.01,0,0.01,0,0.01-0.01l0-0.07h-0.03
						v0.04h-0.06V6.82l-0.03,0v0.04H9.93V6.82L9.9,6.82z"/>
				</g>
				<g>
					<path class="st4" d="M10.08,6.92l0.01,0.27l-0.18,0l0.01-0.27L10.08,6.92"/>
					<path d="M10.1,7.2l-0.2,0l0.01-0.29l0.18,0L10.1,7.2z M9.92,7.18l0.16,0l-0.01-0.25l-0.14,0L9.92,7.18z"/>
				</g>
				<g>
					<path class="st4" d="M9.86,7.05l0.01,0.14l-0.17,0l0-0.14L9.86,7.05L9.86,7.05L9.86,7.05z"/>
					<path d="M9.68,7.2l0.01-0.17h0.18L9.88,7.2L9.68,7.2z M9.71,7.06l0,0.12l0.15,0l0-0.12L9.71,7.06z"/>
				</g>
				<g>
					<g>
						<path class="st4" d="M10.3,7.05l0.01,0.14l-0.17,0l0-0.14L10.3,7.05L10.3,7.05L10.3,7.05z"/>
						<path d="M10.13,7.2l0.01-0.17h0.18l0.01,0.17L10.13,7.2z M10.15,7.06l0,0.12l0.15,0l0-0.12L10.15,7.06z"/>
					</g>
				</g>
				<g>
					<path class="st4" d="M9.67,6.94l0.05,0v0.04h0.04V6.94l0.05,0v0.04h0.04V6.94l0.05,0l0,0.08c0,0.01-0.01,0.02-0.02,0.02H9.69
						c-0.01,0-0.02-0.01-0.02-0.02L9.67,6.94L9.67,6.94L9.67,6.94z"/>
					<path d="M9.87,7.06H9.69c-0.02,0-0.03-0.01-0.03-0.03l0-0.09l0.01-0.01l0,0l0.06,0v0.04h0.02V6.93l0.07,0v0.04h0.02V6.93
						l0.07,0l0,0.09C9.9,7.04,9.89,7.06,9.87,7.06z M9.68,6.95l0,0.07c0,0.01,0.01,0.01,0.01,0.01h0.18c0.01,0,0.01,0,0.01-0.01
						l0-0.07l-0.03,0v0.04H9.79V6.95l-0.03,0v0.04H9.71V6.95L9.68,6.95z"/>
				</g>
				<g>
					<g>
						<path class="st4" d="M10.11,6.94l0.05,0v0.04h0.04V6.94l0.05,0v0.04h0.04V6.94l0.05,0l0,0.08c0,0.01-0.01,0.02-0.02,0.02
							h-0.18c-0.01,0-0.02-0.01-0.02-0.02L10.11,6.94L10.11,6.94L10.11,6.94z"/>
						<path d="M10.31,7.06h-0.18c-0.02,0-0.03-0.01-0.03-0.03l0-0.09l0.01-0.01l0,0l0.06,0v0.04h0.02V6.93l0.07,0v0.04h0.02V6.93
							l0.07,0l0,0.09C10.35,7.04,10.33,7.06,10.31,7.06z M10.12,6.95l0,0.07c0,0.01,0.01,0.01,0.01,0.01h0.18
							c0.01,0,0.01,0,0.01-0.01l0-0.07l-0.03,0v0.04h-0.06V6.95l-0.03,0v0.04h-0.06V6.95L10.12,6.95z"/>
					</g>
				</g>
				<path d="M9.98,7.01c0-0.03,0.04-0.03,0.04,0v0.06H9.98L9.98,7.01"/>
				<path d="M9.76,7.1c0-0.03,0.03-0.03,0.03,0v0.05H9.76L9.76,7.1"/>
				<g>
					<path d="M10.21,7.1c0-0.03,0.03-0.03,0.03,0v0.05h-0.03L10.21,7.1"/>
				</g>
			</g>
		</g>
		<g transform="matrix(-1,0,0,1,479.79195,0)">
			<g>
				<g>
					<path class="st4" d="M12.07,7.58C12.06,7.35,11.9,7.3,11.9,7.3c0,0-0.18,0.06-0.18,0.29L12.07,7.58"/>
					<g>
						<path class="st4" d="M12.21,7.3l0.03,0.26l-0.17,0c0-0.22-0.17-0.26-0.17-0.25c0,0-0.17,0.05-0.17,0.25h-0.17l0.03-0.27
							L12.21,7.3L12.21,7.3L12.21,7.3z"/>
						<path d="M12.05,7.58l0-0.01c0-0.21-0.16-0.24-0.16-0.24c0,0-0.16,0.04-0.16,0.24l0,0.01h-0.19l0.03-0.29l0.65,0V7.3l0.03,0.28
							L12.05,7.58z M11.56,7.56h0.15c0-0.1,0.05-0.17,0.09-0.2c0.02-0.02,0.05-0.04,0.07-0.04l-0.28,0L11.56,7.56z M11.93,7.31
							c0.02,0.01,0.04,0.02,0.05,0.03c0.04,0.03,0.09,0.1,0.09,0.21l0.15,0L12.2,7.31L11.93,7.31z"/>
					</g>
					<g>
						<path class="st4" d="M12.25,7.57h-0.71c-0.01,0-0.03,0.01-0.03,0.03c0,0.02,0.01,0.03,0.03,0.03h0.71
							c0.01,0,0.03-0.01,0.03-0.03C12.27,7.58,12.26,7.57,12.25,7.57z"/>
						<path d="M12.25,7.64h-0.71c-0.02,0-0.04-0.02-0.04-0.04c0-0.02,0.02-0.04,0.04-0.04h0.71c0.02,0,0.04,0.02,0.04,0.04
							C12.29,7.62,12.27,7.64,12.25,7.64z M11.54,7.58c-0.01,0-0.02,0.01-0.02,0.02c0,0.01,0.01,0.02,0.02,0.02h0.71
							c0.01,0,0.02-0.01,0.02-0.02c0-0.01-0.01-0.02-0.02-0.02H11.54z"/>
					</g>
					<g>
						<path class="st4" d="M11.99,7.57c0-0.14-0.09-0.18-0.09-0.18c0,0-0.1,0.04-0.1,0.18H11.99"/>
						<path d="M11.99,7.58h-0.2l0-0.01c0-0.14,0.1-0.19,0.11-0.19c0.01,0,0.03,0.01,0.04,0.02C11.96,7.43,12,7.48,12,7.57l-0.01,0
							V7.58z M11.81,7.55h0.17c0-0.11-0.07-0.15-0.08-0.16C11.88,7.41,11.81,7.45,11.81,7.55z"/>
					</g>
					<g>
						<path class="st4" d="M12.23,7.19h-0.68c-0.01,0-0.03,0.01-0.03,0.03c0,0.02,0.01,0.03,0.03,0.03h0.68
							c0.01,0,0.03-0.01,0.03-0.03C12.26,7.2,12.25,7.19,12.23,7.19z"/>
						<path d="M12.23,7.26h-0.68c-0.02,0-0.04-0.02-0.04-0.04s0.02-0.04,0.04-0.04h0.68c0.02,0,0.04,0.02,0.04,0.04
							S12.25,7.26,12.23,7.26z M11.56,7.2c-0.01,0-0.02,0.01-0.02,0.02s0.01,0.02,0.02,0.02h0.68c0.01,0,0.02-0.01,0.02-0.02
							c0-0.01-0.01-0.02-0.02-0.02H11.56z"/>
					</g>
					<g>
						<path class="st4" d="M12.22,7.25h-0.65c-0.01,0-0.02,0.01-0.02,0.03c0,0.02,0.01,0.03,0.02,0.03h0.65
							c0.01,0,0.02-0.01,0.02-0.03C12.24,7.26,12.23,7.25,12.22,7.25z"/>
						<path d="M12.22,7.32h-0.65c-0.02,0-0.04-0.02-0.04-0.04c0-0.02,0.02-0.04,0.04-0.04h0.65c0.02,0,0.04,0.02,0.04,0.04
							C12.25,7.3,12.24,7.32,12.22,7.32z M11.57,7.26c-0.01,0-0.01,0.01-0.01,0.02c0,0.01,0.01,0.02,0.01,0.02h0.65
							c0.01,0,0.01-0.01,0.01-0.02c0-0.01-0.01-0.02-0.01-0.02H11.57z"/>
					</g>
					<g>
						<path class="st4" d="M12.01,6.81l-0.05,0v0.04h-0.04V6.81l-0.05,0v0.04h-0.04V6.81h-0.05l0,0.08c0,0.01,0.01,0.02,0.02,0.02
							h0.18c0.01,0,0.02-0.01,0.02-0.02L12.01,6.81L12.01,6.81L12.01,6.81z"/>
						<path d="M11.99,6.92H11.8c-0.02,0-0.03-0.01-0.03-0.03l0-0.09h0.07v0.04h0.02V6.8l0.07,0v0.04h0.02V6.8l0.06,0l0.01,0l0,0.09
							C12.02,6.91,12,6.92,11.99,6.92z M11.79,6.82l0,0.07c0,0.01,0.01,0.01,0.01,0.01h0.18C11.99,6.9,12,6.9,12,6.89l0-0.07
							l-0.03,0v0.04h-0.06V6.82l-0.03,0v0.04h-0.06V6.82H11.79z"/>
					</g>
					<g>
						<path class="st4" d="M11.82,6.92l-0.01,0.27l0.18,0l-0.01-0.27L11.82,6.92"/>
						<path d="M11.79,7.2l0.01-0.29l0.18,0L12,7.2L11.79,7.2z M11.83,6.93l-0.01,0.25l0.16,0l-0.01-0.25L11.83,6.93z"/>
					</g>
					<g>
						<path class="st4" d="M12.04,7.05l-0.01,0.14l0.17,0l0-0.14L12.04,7.05L12.04,7.05L12.04,7.05z"/>
						<path d="M12.21,7.2l-0.19,0l0.01-0.17l0.18,0L12.21,7.2z M12.04,7.18l0.15,0l0-0.12h-0.14L12.04,7.18z"/>
					</g>
					<g>
						<g>
							<path class="st4" d="M11.59,7.05l-0.01,0.14l0.17,0l0-0.14L11.59,7.05L11.59,7.05L11.59,7.05z"/>
							<path d="M11.77,7.2l-0.19,0l0.01-0.17l0.18,0L11.77,7.2z M11.6,7.18l0.15,0l0-0.12H11.6L11.6,7.18z"/>
						</g>
					</g>
					<g>
						<path class="st4" d="M12.23,6.94l-0.05,0v0.04h-0.04V6.94l-0.05,0v0.04h-0.04V6.94l-0.05,0l0,0.08c0,0.01,0.01,0.02,0.02,0.02
							h0.18c0.01,0,0.02-0.01,0.02-0.02L12.23,6.94L12.23,6.94L12.23,6.94z"/>
						<path d="M12.21,7.06h-0.18c-0.02,0-0.03-0.01-0.03-0.03l0-0.09l0.07,0v0.04h0.02V6.93l0.07,0v0.04h0.02V6.93l0.07,0l0,0.01
							l0,0.08C12.24,7.04,12.22,7.06,12.21,7.06z M12.01,6.95l0,0.07c0,0.01,0.01,0.01,0.01,0.01h0.18c0.01,0,0.01-0.01,0.01-0.01
							l0-0.07l-0.03,0v0.04h-0.06V6.95l-0.03,0v0.04h-0.06V6.95L12.01,6.95z"/>
					</g>
					<g>
						<g>
							<path class="st4" d="M11.79,6.94l-0.05,0v0.04H11.7V6.94l-0.05,0v0.04h-0.04V6.94l-0.05,0l0,0.08c0,0.01,0.01,0.02,0.02,0.02
								h0.18c0.01,0,0.02-0.01,0.02-0.02L11.79,6.94L11.79,6.94L11.79,6.94z"/>
							<path d="M11.76,7.06h-0.18c-0.02,0-0.03-0.01-0.03-0.03l0-0.09l0.07,0v0.04h0.02V6.93l0.07,0v0.04h0.02V6.93l0.07,0l0,0.01
								l0,0.09C11.8,7.04,11.78,7.06,11.76,7.06z M11.57,6.95l0,0.07c0,0.01,0.01,0.01,0.01,0.01h0.18c0.01,0,0.01-0.01,0.01-0.01
								l0-0.07l-0.03,0v0.04h-0.06V6.95l-0.03,0v0.04H11.6V6.95L11.57,6.95z"/>
						</g>
					</g>
					<path d="M11.91,7.01c0-0.03-0.04-0.03-0.04,0v0.06h0.04L11.91,7.01"/>
					<path d="M12.13,7.1c0-0.03-0.03-0.03-0.03,0v0.05h0.03L12.13,7.1"/>
					<g>
						<path d="M11.69,7.1c0-0.03-0.03-0.03-0.03,0v0.05h0.03L11.69,7.1"/>
					</g>
				</g>
				<g>
					<g>
						<path class="st4" d="M12.07,9.51c-0.01-0.23-0.17-0.28-0.17-0.29c0,0-0.18,0.06-0.18,0.29L12.07,9.51"/>
						<g>
							<path class="st4" d="M12.21,9.23l0.03,0.26l-0.17,0c0-0.22-0.17-0.26-0.17-0.25c0,0-0.17,0.05-0.17,0.25h-0.17l0.03-0.27
								L12.21,9.23L12.21,9.23L12.21,9.23z"/>
							<path d="M12.05,9.51l0-0.01c0-0.21-0.16-0.24-0.16-0.24c0,0-0.16,0.04-0.16,0.24l0,0.01h-0.19l0.03-0.29l0.65,0v0.01
								l0.03,0.28L12.05,9.51z M11.56,9.49h0.15c0-0.1,0.05-0.17,0.09-0.2c0.02-0.02,0.05-0.04,0.07-0.04l-0.28,0L11.56,9.49z
								 M11.93,9.24c0.02,0.01,0.04,0.02,0.05,0.03c0.04,0.03,0.09,0.1,0.09,0.21l0.15,0L12.2,9.24L11.93,9.24z"/>
						</g>
						<g>
							<path class="st4" d="M12.25,9.5h-0.71c-0.01,0-0.03,0.01-0.03,0.03c0,0.02,0.01,0.03,0.03,0.03h0.71
								c0.01,0,0.03-0.01,0.03-0.03C12.27,9.51,12.26,9.5,12.25,9.5z"/>
							<path d="M12.25,9.57h-0.71c-0.02,0-0.04-0.02-0.04-0.04c0-0.02,0.02-0.04,0.04-0.04h0.71c0.02,0,0.04,0.02,0.04,0.04
								C12.29,9.55,12.27,9.57,12.25,9.57z M11.54,9.51c-0.01,0-0.02,0.01-0.02,0.02c0,0.01,0.01,0.02,0.02,0.02h0.71
								c0.01,0,0.02-0.01,0.02-0.02c0-0.01-0.01-0.02-0.02-0.02H11.54z"/>
						</g>
						<g>
							<path class="st4" d="M11.99,9.5c0-0.14-0.09-0.18-0.09-0.18c0,0-0.1,0.04-0.1,0.18H11.99"/>
							<path d="M11.99,9.51h-0.2l0-0.01c0-0.14,0.1-0.19,0.11-0.19c0.01,0,0.03,0.01,0.04,0.02C11.96,9.36,12,9.41,12,9.5l-0.01,0
								V9.51z M11.81,9.48h0.17c0-0.11-0.07-0.15-0.08-0.16C11.88,9.34,11.81,9.38,11.81,9.48z"/>
						</g>
						<g>
							<path class="st4" d="M12.23,9.12h-0.68c-0.01,0-0.03,0.01-0.03,0.03c0,0.02,0.01,0.03,0.03,0.03h0.68
								c0.01,0,0.03-0.01,0.03-0.03C12.26,9.13,12.25,9.12,12.23,9.12z"/>
							<path d="M12.23,9.19h-0.68c-0.02,0-0.04-0.02-0.04-0.04c0-0.02,0.02-0.04,0.04-0.04h0.68c0.02,0,0.04,0.02,0.04,0.04
								C12.27,9.17,12.25,9.19,12.23,9.19z M11.56,9.13c-0.01,0-0.02,0.01-0.02,0.02c0,0.01,0.01,0.02,0.02,0.02h0.68
								c0.01,0,0.02-0.01,0.02-0.02c0-0.01-0.01-0.02-0.02-0.02H11.56z"/>
						</g>
						<g>
							<path class="st4" d="M12.22,9.18h-0.65c-0.01,0-0.02,0.01-0.02,0.03c0,0.02,0.01,0.03,0.02,0.03h0.65
								c0.01,0,0.02-0.01,0.02-0.03C12.24,9.19,12.23,9.18,12.22,9.18z"/>
							<path d="M12.22,9.25h-0.65c-0.02,0-0.04-0.02-0.04-0.04c0-0.02,0.02-0.04,0.04-0.04h0.65c0.02,0,0.04,0.02,0.04,0.04
								C12.25,9.23,12.24,9.25,12.22,9.25z M11.57,9.19c-0.01,0-0.01,0.01-0.01,0.02c0,0.01,0.01,0.02,0.01,0.02h0.65
								c0.01,0,0.01-0.01,0.01-0.02c0-0.01-0.01-0.02-0.01-0.02H11.57z"/>
						</g>
						<g>
							<path class="st4" d="M12.01,8.74l-0.05,0v0.04h-0.04V8.74l-0.05,0v0.04h-0.04V8.74h-0.05l0,0.08c0,0.01,0.01,0.02,0.02,0.02
								h0.18c0.01,0,0.02-0.01,0.02-0.02L12.01,8.74L12.01,8.74L12.01,8.74z"/>
							<path d="M11.99,8.85H11.8c-0.02,0-0.03-0.01-0.03-0.03l0-0.09h0.07v0.04h0.02V8.73l0.07,0v0.04h0.02V8.73l0.06,0l0.01,0
								l0,0.09C12.02,8.84,12,8.85,11.99,8.85z M11.79,8.75l0,0.07c0,0.01,0.01,0.01,0.01,0.01h0.18c0.01,0,0.01-0.01,0.01-0.01
								l0-0.07l-0.03,0v0.04h-0.06V8.75l-0.03,0v0.04h-0.06V8.75H11.79z"/>
						</g>
						<g>
							<path class="st4" d="M11.82,8.85l-0.01,0.27l0.18,0l-0.01-0.27L11.82,8.85"/>
							<path d="M11.79,9.13l0.01-0.29l0.18,0L12,9.13L11.79,9.13z M11.83,8.86l-0.01,0.25l0.16,0l-0.01-0.25L11.83,8.86z"/>
						</g>
						<g>
							<path class="st4" d="M12.04,8.98l-0.01,0.14l0.17,0l0-0.14L12.04,8.98L12.04,8.98L12.04,8.98z"/>
							<path d="M12.21,9.13l-0.19,0l0.01-0.17l0.18,0L12.21,9.13z M12.04,9.11l0.15,0l0-0.12h-0.14L12.04,9.11z"/>
						</g>
						<g>
							<g>
								<path class="st4" d="M11.59,8.98l-0.01,0.14l0.17,0l0-0.14L11.59,8.98L11.59,8.98L11.59,8.98z"/>
								<path d="M11.77,9.13l-0.19,0l0.01-0.17l0.18,0L11.77,9.13z M11.6,9.11l0.15,0l0-0.12H11.6L11.6,9.11z"/>
							</g>
						</g>
						<g>
							<path class="st4" d="M12.23,8.87l-0.05,0v0.04h-0.04V8.87l-0.05,0v0.04h-0.04V8.87l-0.05,0l0,0.08
								c0,0.01,0.01,0.02,0.02,0.02h0.18c0.01,0,0.02-0.01,0.02-0.02L12.23,8.87L12.23,8.87L12.23,8.87z"/>
							<path d="M12.21,8.99h-0.18c-0.02,0-0.03-0.01-0.03-0.03l0-0.09l0.07,0V8.9h0.02V8.86l0.07,0V8.9h0.02V8.86l0.06,0l0.01,0
								l0,0.09C12.24,8.97,12.22,8.99,12.21,8.99z M12.01,8.88l0,0.07c0,0.01,0.01,0.01,0.01,0.01h0.18c0.01,0,0.01-0.01,0.01-0.01
								l0-0.07l-0.03,0v0.04h-0.06V8.88l-0.03,0v0.04h-0.06V8.88L12.01,8.88z"/>
						</g>
						<g>
							<g>
								<path class="st4" d="M11.79,8.87l-0.05,0v0.04H11.7V8.87l-0.05,0v0.04h-0.04V8.87l-0.05,0l0,0.08
									c0,0.01,0.01,0.02,0.02,0.02h0.18c0.01,0,0.02-0.01,0.02-0.02L11.79,8.87L11.79,8.87L11.79,8.87z"/>
								<path d="M11.76,8.99h-0.18c-0.02,0-0.03-0.01-0.03-0.03l0-0.09l0.07,0V8.9h0.02V8.86l0.07,0V8.9h0.02V8.86l0.06,0l0.01,0.01
									l0,0.09C11.8,8.97,11.78,8.99,11.76,8.99z M11.57,8.88l0,0.07c0,0.01,0.01,0.01,0.01,0.01h0.18c0.01,0,0.01-0.01,0.01-0.01
									l0-0.07l-0.03,0v0.04h-0.06V8.88l-0.03,0v0.04H11.6V8.88L11.57,8.88z"/>
							</g>
						</g>
						<path d="M11.91,8.94c0-0.03-0.04-0.03-0.04,0V9h0.04L11.91,8.94"/>
						<path d="M12.13,9.03c0-0.03-0.03-0.03-0.03,0v0.05h0.03L12.13,9.03"/>
						<g>
							<path d="M11.69,9.03c0-0.03-0.03-0.03-0.03,0v0.05h0.03L11.69,9.03"/>
						</g>
					</g>
				</g>
				<g transform="matrix(0.70460892,-0.70959585,0.70959585,0.70460892,-35.341459,275.10898)">
					<g>
						<path class="st4" d="M11.31,11.52c0.16-0.17,0.08-0.32,0.08-0.32c0,0-0.17-0.08-0.33,0.08L11.31,11.52"/>
						<g>
							<path class="st4" d="M11.61,11.42l-0.17,0.21l-0.12-0.12c0.15-0.16,0.06-0.3,0.06-0.3c0,0-0.15-0.08-0.3,0.06l-0.12-0.12
								l0.21-0.17L11.61,11.42L11.61,11.42L11.61,11.42z"/>
							<path d="M11.45,11.64l-0.14-0.14l0.01-0.01c0.15-0.15,0.06-0.28,0.06-0.29l0,0c0,0-0.14-0.08-0.29,0.06l-0.01,0.01
								l-0.14-0.14l0.23-0.18l0.45,0.46l-0.01,0.01L11.45,11.64z M11.34,11.51l0.11,0.11l0.15-0.19l-0.19-0.19
								c0.01,0.02,0.01,0.04,0.01,0.06C11.43,11.34,11.42,11.42,11.34,11.51z M10.98,11.14l0.11,0.11c0.08-0.07,0.15-0.08,0.2-0.08
								c0.03,0,0.06,0.01,0.08,0.02l-0.19-0.2L10.98,11.14z"/>
						</g>
						<g>
							<path class="st4" d="M11.45,11.64l-0.5-0.5c-0.01-0.01-0.03-0.01-0.04,0c-0.01,0.01-0.01,0.03,0,0.04l0.5,0.5
								c0.01,0.01,0.03,0.01,0.04,0C11.46,11.67,11.46,11.65,11.45,11.64z"/>
							<path d="M11.42,11.7c-0.01,0-0.02,0-0.02-0.01l-0.5-0.5c-0.01-0.01-0.01-0.02-0.01-0.02c0-0.01,0.01-0.02,0.01-0.03
								c0.01-0.01,0.02-0.01,0.03-0.01c0.01,0,0.02,0,0.03,0.01l0.5,0.5c0.01,0.01,0.01,0.04,0,0.06
								C11.45,11.7,11.43,11.7,11.42,11.7z M10.94,11.14C10.94,11.14,10.94,11.14,10.94,11.14c-0.01,0-0.01,0-0.02,0.01
								c0,0-0.01,0.01-0.01,0.02c0,0,0,0.01,0,0.01l0.5,0.5c0.01,0.01,0.02,0,0.03,0c0.01-0.01,0.01-0.02,0-0.03l-0.5-0.5
								C10.95,11.14,10.94,11.14,10.94,11.14z"/>
						</g>
						<g>
							<path class="st4" d="M11.27,11.46c0.1-0.1,0.06-0.19,0.06-0.19c0,0-0.1-0.04-0.19,0.05L11.27,11.46"/>
							<path d="M11.28,11.46L11.28,11.46l-0.01,0l-0.14-0.14l0.01-0.01c0.1-0.1,0.2-0.06,0.21-0.06c0.01,0.01,0.01,0.04,0.01,0.04
								C11.35,11.34,11.34,11.4,11.28,11.46z M11.15,11.32l0.12,0.12c0.07-0.08,0.06-0.15,0.05-0.17
								C11.31,11.27,11.23,11.25,11.15,11.32z"/>
						</g>
						<g>
							<path class="st4" d="M11.71,11.36l-0.48-0.48c-0.01-0.01-0.03-0.01-0.04,0c-0.01,0.01-0.01,0.03,0,0.04l0.48,0.48
								c0.01,0.01,0.03,0.01,0.04,0C11.72,11.39,11.72,11.37,11.71,11.36z"/>
							<path d="M11.68,11.42c-0.01,0-0.02,0-0.02-0.01l-0.48-0.48c-0.01-0.01-0.01-0.02-0.01-0.03c0-0.01,0.01-0.02,0.01-0.03
								c0.01-0.01,0.02-0.01,0.03-0.01c0.01,0,0.02,0,0.02,0.01l0.48,0.48v0c0.01,0.01,0.01,0.02,0.01,0.02c0,0.01,0,0.02-0.01,0.03
								C11.7,11.42,11.69,11.42,11.68,11.42z M11.21,10.89c-0.01,0-0.01,0-0.01,0.01c0,0-0.01,0.01-0.01,0.01c0,0,0,0.01,0,0.01
								l0.48,0.48c0.01,0.01,0.02,0,0.02,0c0,0,0.01-0.01,0.01-0.01c0,0,0-0.01,0-0.01v0l-0.48-0.48
								C11.22,10.89,11.22,10.89,11.21,10.89z"/>
						</g>
						<g>
							<path class="st4" d="M11.66,11.39l-0.46-0.46c-0.01-0.01-0.03-0.01-0.04,0c-0.01,0.01-0.01,0.03,0,0.04l0.46,0.46
								c0.01,0.01,0.03,0.01,0.04,0C11.66,11.42,11.67,11.4,11.66,11.39z"/>
							<path d="M11.63,11.45c-0.01,0-0.02,0-0.02-0.01l-0.46-0.46c-0.01-0.01-0.01-0.04,0-0.05c0.02-0.02,0.04-0.02,0.05,0
								l0.46,0.46c0.01,0.01,0.01,0.04,0,0.05C11.65,11.45,11.64,11.45,11.63,11.45C11.63,11.45,11.63,11.45,11.63,11.45z
								 M11.18,10.94c0,0-0.01,0-0.01,0.01c-0.01,0.01-0.01,0.02,0,0.02l0.46,0.46c0,0,0.01,0,0.01,0c0,0,0.01,0,0.01-0.01
								c0.01-0.01,0.01-0.02,0-0.02L11.18,10.94C11.19,10.94,11.19,10.94,11.18,10.94z"/>
						</g>
						<g>
							<path class="st4" d="M11.82,10.94l-0.04-0.04l-0.03,0.03l-0.03-0.03l0.03-0.03l-0.04-0.04l-0.03,0.03l-0.03-0.03l0.03-0.03
								l-0.04-0.04l-0.06,0.06c-0.01,0.01-0.01,0.02,0,0.03l0.13,0.13c0.01,0.01,0.02,0.01,0.03,0L11.82,10.94L11.82,10.94
								L11.82,10.94z"/>
							<path d="M11.75,11.01c-0.01,0-0.02,0-0.02-0.01l-0.13-0.13c-0.01-0.01-0.01-0.03,0-0.05l0.07-0.07l0.05,0.05l-0.03,0.03
								l0.01,0.01l0.03-0.03l0.05,0.05l-0.03,0.03l0.01,0.01l0.03-0.03l0.05,0.05L11.77,11C11.76,11.01,11.76,11.01,11.75,11.01z
								 M11.66,10.79l-0.05,0.05c-0.01,0.01,0,0.01,0,0.02l0.13,0.13c0,0,0.01,0.01,0.02,0l0.05-0.05l-0.02-0.02l-0.03,0.03
								l-0.04-0.04l0.03-0.03l-0.02-0.02l-0.03,0.03l-0.04-0.04l0.03-0.03L11.66,10.79z"/>
						</g>
						<g>
							<path class="st4" d="M11.61,10.88l-0.2,0.18l0.13,0.13l0.18-0.2L11.61,10.88"/>
							<path d="M11.54,11.2l-0.14-0.14l0.21-0.2l0.12,0.12L11.54,11.2z M11.42,11.06l0.11,0.11l0.17-0.18l-0.1-0.1L11.42,11.06z"/>
						</g>
						<g>
							<path class="st4" d="M11.67,11.12l-0.11,0.1l0.12,0.12l0.1-0.11L11.67,11.12L11.67,11.12L11.67,11.12z"/>
							<path d="M11.69,11.36l-0.14-0.14l0.12-0.11l0.13,0.13L11.69,11.36z M11.58,11.22l0.11,0.11l0.09-0.09l-0.1-0.1L11.58,11.22z"
								/>
						</g>
						<g>
							<g>
								<path class="st4" d="M11.36,10.81l-0.11,0.1l0.12,0.12l0.1-0.11L11.36,10.81L11.36,10.81L11.36,10.81z"/>
								<path d="M11.38,11.04l-0.14-0.14l0.11-0.11l0.01,0.01l0.01-0.01l0,0l0.01,0.01h0l0.11,0.11L11.38,11.04z M11.27,10.91
									l0.11,0.11l0.09-0.09l-0.1-0.1L11.27,10.91z"/>
							</g>
						</g>
						<g>
							<path class="st4" d="M11.88,11.18l-0.04-0.04l-0.03,0.03l-0.03-0.03l0.03-0.03l-0.04-0.04l-0.03,0.03l-0.03-0.03l0.03-0.03
								l-0.04-0.04l-0.06,0.06c-0.01,0.01-0.01,0.02,0,0.03l0.13,0.13c0.01,0.01,0.02,0.01,0.03,0L11.88,11.18L11.88,11.18
								L11.88,11.18z"/>
							<path d="M11.81,11.26c-0.01,0-0.02,0-0.02-0.01l-0.13-0.13c-0.01-0.01-0.01-0.03,0-0.05l0.07-0.07l0.05,0.05l-0.03,0.03
								l0.01,0.01l0.03-0.03l0.05,0.05l-0.03,0.03l0.01,0.01l0.03-0.03l0.04,0.04l0,0.01l-0.06,0.06
								C11.83,11.26,11.82,11.26,11.81,11.26z M11.72,11.04l-0.05,0.05c-0.01,0.01,0,0.01,0,0.02l0.13,0.13c0,0,0.01,0.01,0.02,0
								l0.05-0.05l-0.02-0.02l-0.03,0.03l-0.04-0.04l0.03-0.03l-0.02-0.02l-0.03,0.03l-0.04-0.04l0.03-0.03L11.72,11.04z"/>
						</g>
						<g>
							<g>
								<path class="st4" d="M11.57,10.87l-0.04-0.04l-0.03,0.03l-0.03-0.03l0.03-0.03l-0.04-0.04l-0.03,0.03l-0.03-0.03l0.03-0.03
									l-0.04-0.04l-0.06,0.06c-0.01,0.01-0.01,0.02,0,0.03l0.13,0.13c0.01,0.01,0.02,0.01,0.03,0L11.57,10.87L11.57,10.87
									L11.57,10.87z"/>
								<path d="M11.5,10.94c-0.01,0-0.02,0-0.02-0.01l-0.13-0.13c-0.01-0.01-0.01-0.03,0-0.05l0.07-0.07l0.05,0.05l-0.03,0.03
									l0.01,0.01l0.03-0.03l0.05,0.05l-0.03,0.03l0.01,0.01l0.03-0.03l0.05,0.05v0.01l-0.06,0.06
									C11.51,10.94,11.51,10.94,11.5,10.94z M11.41,10.72l-0.05,0.05c-0.01,0.01,0,0.01,0,0.02l0.13,0.13c0,0,0.01,0.01,0.02,0
									l0.05-0.05l-0.02-0.02l-0.03,0.03l-0.04-0.04l0.03-0.03l-0.02-0.02l-0.03,0.03l-0.04-0.04l0.03-0.03L11.41,10.72z"/>
							</g>
						</g>
						<path d="M11.61,11.01c0.02-0.02-0.01-0.04-0.03-0.03l-0.05,0.05l0.03,0.03L11.61,11.01"/>
						<path d="M11.7,11.23c0.02-0.02-0.01-0.04-0.02-0.02l-0.04,0.03l0.02,0.02L11.7,11.23"/>
						<g>
							<path d="M11.39,10.91c0.02-0.02-0.01-0.04-0.02-0.02l-0.04,0.03l0.02,0.02L11.39,10.91"/>
						</g>
					</g>
				</g>
			</g>
		</g>
		<g id="quina">
			<path class="st5" d="M9.69,9.58L9.69,9.58c0,0.09,0.04,0.18,0.09,0.24c0.06,0.06,0.14,0.1,0.22,0.1c0.09,0,0.16-0.04,0.22-0.1
				c0.06-0.06,0.09-0.14,0.09-0.24V9.13l-0.62,0L9.69,9.58"/>
			<circle class="st3" cx="9.84" cy="9.3" r="0.06"/>
			<circle class="st3" cx="10.18" cy="9.3" r="0.06"/>
			<circle class="st3" cx="10.01" cy="9.47" r="0.06"/>
			<circle class="st3" cx="9.84" cy="9.64" r="0.06"/>
			<circle class="st3" cx="10.18" cy="9.64" r="0.06"/>
		</g>
		<g>
			<g>
				<path class="st5" d="M9.69,8.5L9.69,8.5c0,0.09,0.04,0.18,0.09,0.24c0.06,0.06,0.14,0.1,0.22,0.1c0.09,0,0.16-0.04,0.22-0.1
					c0.06-0.06,0.09-0.14,0.09-0.24V8.05l-0.62,0L9.69,8.5"/>
				<circle class="st3" cx="9.84" cy="8.22" r="0.06"/>
				<circle class="st3" cx="10.18" cy="8.22" r="0.06"/>
				<circle class="st3" cx="10.01" cy="8.39" r="0.06"/>
				<circle class="st3" cx="9.84" cy="8.56" r="0.06"/>
				<circle class="st3" cx="10.18" cy="8.56" r="0.06"/>
			</g>
		</g>
		<g>
			<g>
				<path class="st5" d="M8.83,9.58L8.83,9.58c0,0.09,0.04,0.18,0.09,0.24c0.06,0.06,0.14,0.1,0.22,0.1c0.09,0,0.16-0.04,0.22-0.1
					c0.06-0.06,0.09-0.14,0.09-0.24V9.13l-0.62,0L8.83,9.58"/>
				<circle class="st3" cx="8.97" cy="9.3" r="0.06"/>
				<circle class="st3" cx="9.32" cy="9.3" r="0.06"/>
				<circle class="st3" cx="9.14" cy="9.47" r="0.06"/>
				<circle class="st3" cx="8.97" cy="9.64" r="0.06"/>
				<circle class="st3" cx="9.32" cy="9.64" r="0.06"/>
			</g>
		</g>
		<g>
			<g>
				<path class="st5" d="M10.56,9.58L10.56,9.58c0,0.09,0.04,0.18,0.09,0.24c0.06,0.06,0.14,0.1,0.22,0.1c0.09,0,0.16-0.04,0.22-0.1
					c0.06-0.06,0.09-0.14,0.09-0.24V9.13l-0.62,0L10.56,9.58"/>
				<circle class="st3" cx="10.7" cy="9.3" r="0.06"/>
				<circle class="st3" cx="11.05" cy="9.3" r="0.06"/>
				<circle class="st3" cx="10.87" cy="9.47" r="0.06"/>
				<circle class="st3" cx="10.7" cy="9.64" r="0.06"/>
				<circle class="st3" cx="11.05" cy="9.64" r="0.06"/>
			</g>
		</g>
		<g>
			<g>
				<path class="st5" d="M9.69,10.66L9.69,10.66c0,0.09,0.04,0.18,0.09,0.24c0.06,0.06,0.14,0.1,0.22,0.1c0.09,0,0.16-0.04,0.22-0.1
					c0.06-0.06,0.09-0.14,0.09-0.24v-0.45l-0.62,0L9.69,10.66"/>
				<circle class="st3" cx="9.84" cy="10.38" r="0.06"/>
				<circle class="st3" cx="10.18" cy="10.38" r="0.06"/>
				<circle class="st3" cx="10.01" cy="10.54" r="0.06"/>
				<circle class="st3" cx="9.84" cy="10.72" r="0.06"/>
				<circle class="st3" cx="10.18" cy="10.72" r="0.06"/>
			</g>
		</g>
	</g>
</g>
</svg>
