<svg width="14" height="12" viewBox="0 0 14 12" fill="none" xmlns="http://www.w3.org/2000/svg">
  <path d="M13.0002 12H1.00016C0.823352 12 0.653782 11.9298 0.528758 11.8047C0.403734 11.6797 0.333496 11.5101 0.333496 11.3333V6.32467C0.333486 6.22941 0.35389 6.13525 0.393335 6.04854C0.432779 5.96183 0.490348 5.88459 0.562163 5.822L3.00016 3.696V0.666667C3.00016 0.489856 3.0704 0.320286 3.19543 0.195262C3.32045 0.0702379 3.49002 0 3.66683 0H13.0002C13.177 0 13.3465 0.0702379 13.4716 0.195262C13.5966 0.320286 13.6668 0.489856 13.6668 0.666667V11.3333C13.6668 11.5101 13.5966 11.6797 13.4716 11.8047C13.3465 11.9298 13.177 12 13.0002 12ZM5.00016 10.6667H7.00016V6.628L4.3335 4.30267L1.66683 6.628V10.6667H3.66683V8H5.00016V10.6667ZM8.3335 10.6667H12.3335V1.33333H4.3335V2.75133C4.4895 2.75133 4.64616 2.806 4.7715 2.916L8.10483 5.822C8.17664 5.88459 8.23421 5.96183 8.27366 6.04854C8.3131 6.13525 8.33351 6.22941 8.3335 6.32467V10.6667ZM9.66683 5.33333H11.0002V6.66667H9.66683V5.33333ZM9.66683 8H11.0002V9.33333H9.66683V8ZM9.66683 2.66667H11.0002V4H9.66683V2.66667ZM7.00016 2.66667H8.3335V4H7.00016V2.66667Z" fill="black"/>
</svg>
