<svg width="24" height="24" viewBox="0 0 24 24" fill="none" xmlns="http://www.w3.org/2000/svg">
  <circle cx="12" cy="12" r="12" fill="#D6E1FF"/>
  <path d="M16.3747 12.3084V17.3752C16.3747 17.5188 16.3176 17.6566 16.216 17.7582C16.1144 17.8598 15.9767 17.9168 15.833 17.9168H7.16634C7.02268 17.9168 6.88491 17.8598 6.78333 17.7582C6.68175 17.6566 6.62468 17.5188 6.62468 17.3752V12.3084C6.27493 11.913 6.08223 11.4031 6.08301 10.8752V7.62516C6.08301 7.4815 6.14008 7.34373 6.24166 7.24215C6.34324 7.14056 6.48102 7.0835 6.62468 7.0835H16.3747C16.5183 7.0835 16.6561 7.14056 16.7577 7.24215C16.8593 7.34373 16.9163 7.4815 16.9163 7.62516V10.8752C16.9163 11.4244 16.7116 11.926 16.3747 12.3084ZM15.2913 12.9736C14.904 13.0731 14.4966 13.0636 14.1143 12.9463C13.732 12.8289 13.3895 12.6081 13.1247 12.3084C12.9216 12.5392 12.6715 12.724 12.3913 12.8505C12.1111 12.977 11.8071 13.0422 11.4997 13.0418C11.1922 13.0422 10.8883 12.977 10.608 12.8505C10.3278 12.724 10.0778 12.5392 9.87468 12.3084C9.61051 12.609 9.26808 12.8303 8.88553 12.9478C8.50298 13.0652 8.09533 13.0742 7.70801 12.9736V16.8335H15.2913V12.9736ZM12.583 10.8752C12.583 10.7315 12.6401 10.5937 12.7417 10.4921C12.8432 10.3906 12.981 10.3335 13.1247 10.3335C13.2683 10.3335 13.4061 10.3906 13.5077 10.4921C13.6093 10.5937 13.6663 10.7315 13.6663 10.8752C13.6663 11.1625 13.7805 11.438 13.9836 11.6412C14.1868 11.8444 14.4624 11.9585 14.7497 11.9585C15.037 11.9585 15.3125 11.8444 15.5157 11.6412C15.7189 11.438 15.833 11.1625 15.833 10.8752V8.16683H7.16634V10.8752C7.16634 11.1625 7.28048 11.438 7.48364 11.6412C7.68681 11.8444 7.96236 11.9585 8.24968 11.9585C8.53699 11.9585 8.81254 11.8444 9.01571 11.6412C9.21887 11.438 9.33301 11.1625 9.33301 10.8752C9.33301 10.7315 9.39008 10.5937 9.49166 10.4921C9.59324 10.3906 9.73102 10.3335 9.87468 10.3335C10.0183 10.3335 10.1561 10.3906 10.2577 10.4921C10.3593 10.5937 10.4163 10.7315 10.4163 10.8752C10.4163 11.1625 10.5305 11.438 10.7336 11.6412C10.9368 11.8444 11.2124 11.9585 11.4997 11.9585C11.787 11.9585 12.0625 11.8444 12.2657 11.6412C12.4689 11.438 12.583 11.1625 12.583 10.8752Z" fill="#2F77E2"/>
</svg>
