<?xml version="1.0" encoding="utf-8"?>
<!-- Generator: Adobe Illustrator 23.1.1, SVG Export Plug-In . SVG Version: 6.00 Build 0)  -->
<svg version="1.1" id="Camada_1" xmlns="http://www.w3.org/2000/svg" xmlns:xlink="http://www.w3.org/1999/xlink" x="0px" y="0px"
	 viewBox="0 0 25 20" style="enable-background:new 0 0 25 20;" xml:space="preserve">
<style type="text/css">
	.st0{fill:#B22234;}
	.st1{fill:#FFFFFF;}
	.st2{fill:#3C3B6E;}
</style>
<g>
	<rect y="3.53" class="st0" width="25" height="13.16"/>
</g>
<g>
	<path d="M0,5.05h25 M25,7.07H0 M0,9.1h25 M25,11.12H0 M0,13.15h25 M25,15.17H0"/>
	<path class="st1" d="M25,15.68H0v-1.01h25V15.68z M25,13.65H0v-1.01h25V13.65z M25,11.63H0v-1.01h25V11.63z M25,9.6H0V8.59h25V9.6z
		 M25,7.58H0V6.57h25V7.58z M25,5.56H0V4.54h25V5.56z"/>
</g>
<g>
	<rect y="3.53" class="st2" width="10" height="7.09"/>
</g>
<g>
	<g id="s18">
		<g id="s9">
			<g id="s5">
				<g id="s4">
					<g id="s">
						<path class="st1" d="M0.83,3.83l0.24,0.73L0.45,4.11h0.77L0.6,4.57L0.83,3.83z"/>
					</g>
					<g>
						<g>
							<path class="st1" d="M0.83,5.25l0.24,0.73L0.45,5.53h0.77L0.6,5.98L0.83,5.25z"/>
						</g>
					</g>
					<g>
						<g>
							<path class="st1" d="M0.83,6.67L1.07,7.4L0.45,6.95h0.77L0.6,7.4L0.83,6.67z"/>
						</g>
					</g>
					<g>
						<g>
							<path class="st1" d="M0.83,8.09l0.24,0.73L0.45,8.37h0.77L0.6,8.82L0.83,8.09z"/>
						</g>
					</g>
				</g>
				<g>
					<g>
						<path class="st1" d="M0.83,9.5l0.24,0.73L0.45,9.78h0.77L0.6,10.23L0.83,9.5z"/>
					</g>
				</g>
			</g>
			<g>
				<g>
					<g>
						<path class="st1" d="M1.67,4.54L1.9,5.28L1.28,4.82h0.77L1.43,5.28L1.67,4.54z"/>
					</g>
					<g>
						<g>
							<path class="st1" d="M1.67,5.96L1.9,6.69L1.28,6.24h0.77L1.43,6.69L1.67,5.96z"/>
						</g>
					</g>
					<g>
						<g>
							<path class="st1" d="M1.67,7.38L1.9,8.11L1.28,7.66h0.77L1.43,8.11L1.67,7.38z"/>
						</g>
					</g>
					<g>
						<g>
							<path class="st1" d="M1.67,8.79L1.9,9.53L1.28,9.07h0.77L1.43,9.53L1.67,8.79z"/>
						</g>
					</g>
				</g>
			</g>
		</g>
		<g>
			<g>
				<g>
					<g>
						<g>
							<path class="st1" d="M2.5,3.83l0.24,0.73L2.11,4.11h0.77L2.26,4.57L2.5,3.83z"/>
						</g>
						<g>
							<g>
								<path class="st1" d="M2.5,5.25l0.24,0.73L2.11,5.53h0.77L2.26,5.98L2.5,5.25z"/>
							</g>
						</g>
						<g>
							<g>
								<path class="st1" d="M2.5,6.67L2.74,7.4L2.11,6.95h0.77L2.26,7.4L2.5,6.67z"/>
							</g>
						</g>
						<g>
							<g>
								<path class="st1" d="M2.5,8.09l0.24,0.73L2.11,8.37h0.77L2.26,8.82L2.5,8.09z"/>
							</g>
						</g>
					</g>
					<g>
						<g>
							<path class="st1" d="M2.5,9.5l0.24,0.73L2.11,9.78h0.77l-0.62,0.45L2.5,9.5z"/>
						</g>
					</g>
				</g>
				<g>
					<g>
						<g>
							<path class="st1" d="M3.33,4.54l0.24,0.73L2.95,4.82h0.77L3.1,5.28L3.33,4.54z"/>
						</g>
						<g>
							<g>
								<path class="st1" d="M3.33,5.96l0.24,0.73L2.95,6.24h0.77L3.1,6.69L3.33,5.96z"/>
							</g>
						</g>
						<g>
							<g>
								<path class="st1" d="M3.33,7.38l0.24,0.73L2.95,7.66h0.77L3.1,8.11L3.33,7.38z"/>
							</g>
						</g>
						<g>
							<g>
								<path class="st1" d="M3.33,8.79l0.24,0.73L2.95,9.07h0.77L3.1,9.53L3.33,8.79z"/>
							</g>
						</g>
					</g>
				</g>
			</g>
		</g>
	</g>
	<g>
		<g>
			<g>
				<g>
					<g>
						<g>
							<path class="st1" d="M4.17,3.83L4.4,4.57L3.78,4.11h0.77L3.93,4.57L4.17,3.83z"/>
						</g>
						<g>
							<g>
								<path class="st1" d="M4.17,5.25L4.4,5.98L3.78,5.53h0.77L3.93,5.98L4.17,5.25z"/>
							</g>
						</g>
						<g>
							<g>
								<path class="st1" d="M4.17,6.67L4.4,7.4L3.78,6.95h0.77L3.93,7.4L4.17,6.67z"/>
							</g>
						</g>
						<g>
							<g>
								<path class="st1" d="M4.17,8.09L4.4,8.82L3.78,8.37h0.77L3.93,8.82L4.17,8.09z"/>
							</g>
						</g>
					</g>
					<g>
						<g>
							<path class="st1" d="M4.17,9.5l0.24,0.73L3.78,9.78h0.77l-0.62,0.45L4.17,9.5z"/>
						</g>
					</g>
				</g>
				<g>
					<g>
						<g>
							<path class="st1" d="M5,4.54l0.24,0.73L4.61,4.82h0.77L4.76,5.28L5,4.54z"/>
						</g>
						<g>
							<g>
								<path class="st1" d="M5,5.96l0.24,0.73L4.61,6.24h0.77L4.76,6.69L5,5.96z"/>
							</g>
						</g>
						<g>
							<g>
								<path class="st1" d="M5,7.38l0.24,0.73L4.61,7.66h0.77L4.76,8.11L5,7.38z"/>
							</g>
						</g>
						<g>
							<g>
								<path class="st1" d="M5,8.79l0.24,0.73L4.61,9.07h0.77L4.76,9.53L5,8.79z"/>
							</g>
						</g>
					</g>
				</g>
			</g>
			<g>
				<g>
					<g>
						<g>
							<g>
								<path class="st1" d="M5.83,3.83l0.24,0.73L5.45,4.11h0.77L5.6,4.57L5.83,3.83z"/>
							</g>
							<g>
								<g>
									<path class="st1" d="M5.83,5.25l0.24,0.73L5.45,5.53h0.77L5.6,5.98L5.83,5.25z"/>
								</g>
							</g>
							<g>
								<g>
									<path class="st1" d="M5.83,6.67L6.07,7.4L5.45,6.95h0.77L5.6,7.4L5.83,6.67z"/>
								</g>
							</g>
							<g>
								<g>
									<path class="st1" d="M5.83,8.09l0.24,0.73L5.45,8.37h0.77L5.6,8.82L5.83,8.09z"/>
								</g>
							</g>
						</g>
						<g>
							<g>
								<path class="st1" d="M5.83,9.5l0.24,0.73L5.45,9.78h0.77L5.6,10.23L5.83,9.5z"/>
							</g>
						</g>
					</g>
					<g>
						<g>
							<g>
								<path class="st1" d="M6.67,4.54L6.9,5.28L6.28,4.82h0.77L6.43,5.28L6.67,4.54z"/>
							</g>
							<g>
								<g>
									<path class="st1" d="M6.67,5.96L6.9,6.69L6.28,6.24h0.77L6.43,6.69L6.67,5.96z"/>
								</g>
							</g>
							<g>
								<g>
									<path class="st1" d="M6.67,7.38L6.9,8.11L6.28,7.66h0.77L6.43,8.11L6.67,7.38z"/>
								</g>
							</g>
							<g>
								<g>
									<path class="st1" d="M6.67,8.79L6.9,9.53L6.28,9.07h0.77L6.43,9.53L6.67,8.79z"/>
								</g>
							</g>
						</g>
					</g>
				</g>
			</g>
		</g>
	</g>
	<g>
		<g>
			<g>
				<g>
					<g>
						<path class="st1" d="M7.5,3.83l0.24,0.73L7.11,4.11h0.77L7.26,4.57L7.5,3.83z"/>
					</g>
					<g>
						<g>
							<path class="st1" d="M7.5,5.25l0.24,0.73L7.11,5.53h0.77L7.26,5.98L7.5,5.25z"/>
						</g>
					</g>
					<g>
						<g>
							<path class="st1" d="M7.5,6.67L7.74,7.4L7.11,6.95h0.77L7.26,7.4L7.5,6.67z"/>
						</g>
					</g>
					<g>
						<g>
							<path class="st1" d="M7.5,8.09l0.24,0.73L7.11,8.37h0.77L7.26,8.82L7.5,8.09z"/>
						</g>
					</g>
				</g>
				<g>
					<g>
						<path class="st1" d="M7.5,9.5l0.24,0.73L7.11,9.78h0.77l-0.62,0.45L7.5,9.5z"/>
					</g>
				</g>
			</g>
			<g>
				<g>
					<g>
						<path class="st1" d="M8.33,4.54l0.24,0.73L7.95,4.82h0.77L8.1,5.28L8.33,4.54z"/>
					</g>
					<g>
						<g>
							<path class="st1" d="M8.33,5.96l0.24,0.73L7.95,6.24h0.77L8.1,6.69L8.33,5.96z"/>
						</g>
					</g>
					<g>
						<g>
							<path class="st1" d="M8.33,7.38l0.24,0.73L7.95,7.66h0.77L8.1,8.11L8.33,7.38z"/>
						</g>
					</g>
					<g>
						<g>
							<path class="st1" d="M8.33,8.79l0.24,0.73L7.95,9.07h0.77L8.1,9.53L8.33,8.79z"/>
						</g>
					</g>
				</g>
			</g>
		</g>
	</g>
	<g>
		<g>
			<g>
				<g>
					<path class="st1" d="M9.17,3.83L9.4,4.57L8.78,4.11h0.77L8.93,4.57L9.17,3.83z"/>
				</g>
				<g>
					<g>
						<path class="st1" d="M9.17,5.25L9.4,5.98L8.78,5.53h0.77L8.93,5.98L9.17,5.25z"/>
					</g>
				</g>
				<g>
					<g>
						<path class="st1" d="M9.17,6.67L9.4,7.4L8.78,6.95h0.77L8.93,7.4L9.17,6.67z"/>
					</g>
				</g>
				<g>
					<g>
						<path class="st1" d="M9.17,8.09L9.4,8.82L8.78,8.37h0.77L8.93,8.82L9.17,8.09z"/>
					</g>
				</g>
			</g>
			<g>
				<g>
					<path class="st1" d="M9.17,9.5l0.24,0.73L8.78,9.78h0.77l-0.62,0.45L9.17,9.5z"/>
				</g>
			</g>
		</g>
	</g>
</g>
</svg>
