<svg width="18" height="18" viewBox="0 0 18 18" fill="none" xmlns="http://www.w3.org/2000/svg">
  <path d="M12.7423 13.3077V11.7409H13.1164C13.5481 11.7408 13.9731 11.629 14.3535 11.4153C14.734 11.2017 15.0581 10.8928 15.297 10.5163C15.5359 10.1398 15.6822 9.70723 15.7228 9.25718C15.7635 8.80713 15.6973 8.35352 15.5301 7.93675C15.3628 7.51998 15.0998 7.15298 14.7644 6.8684C14.4289 6.58382 14.0315 6.3905 13.6075 6.30565C13.1835 6.2208 12.746 6.24705 12.334 6.38207C11.922 6.51708 11.5483 6.75667 11.2461 7.07951V7.04034C11.2458 6.17866 11.0193 5.33363 10.5914 4.59762C10.1635 3.86161 9.55062 3.26294 8.81975 2.86702C8.08888 2.47111 7.26815 2.2932 6.44725 2.35272C5.62635 2.41224 4.83687 2.70692 4.16509 3.20454C3.4933 3.70216 2.96507 4.38358 2.63812 5.17433C2.31116 5.96507 2.19806 6.83472 2.31119 7.68822C2.42431 8.54173 2.7593 9.34625 3.27954 10.0139C3.79979 10.6815 4.48527 11.1865 5.26108 11.4737V13.1103C4.26884 12.8414 3.35917 12.3102 2.61921 11.5676C1.87926 10.825 1.33382 9.89582 1.03515 8.86913C0.736479 7.84245 0.694592 6.75264 0.9135 5.70414C1.13241 4.65564 1.60477 3.68358 2.28534 2.88108C2.96591 2.07859 3.83187 1.47255 4.80026 1.12105C5.76865 0.769544 6.80702 0.684346 7.81587 0.873617C8.82472 1.06289 9.77026 1.52029 10.5619 2.20199C11.3535 2.88369 11.9647 3.76685 12.3369 4.76685C12.8995 4.65412 13.4784 4.66565 14.0365 4.80071C14.5946 4.93576 15.1197 5.19136 15.578 5.55114C16.0364 5.91092 16.418 6.36696 16.6983 6.89006C16.9787 7.41316 17.1517 7.9918 17.2062 8.58894C17.2607 9.18607 17.1955 9.78855 17.0148 10.3578C16.8342 10.927 16.542 11.4505 16.157 11.8947C15.7721 12.3389 15.3028 12.694 14.7792 12.9373C14.2556 13.1806 13.6892 13.3068 13.1164 13.3077H12.7423ZM6.75733 11.7409H8.25359V14.8746H6.75733V11.7409ZM9.74984 14.0911H11.2461V17.2248H9.74984V14.0911Z" fill="#2A2A2A"/>
</svg>
