<svg width="18" height="18" viewBox="0 0 18 18" fill="none" xmlns="http://www.w3.org/2000/svg">
  <path d="M12.7423 13.3076V11.7408H13.1164C13.5481 11.7407 13.9731 11.6289 14.3535 11.4152C14.734 11.2016 15.0581 10.8927 15.297 10.5162C15.5359 10.1397 15.6822 9.70711 15.7228 9.25706C15.7635 8.807 15.6973 8.3534 15.5301 7.93663C15.3628 7.51986 15.0998 7.15285 14.7644 6.86827C14.4289 6.5837 14.0315 6.39038 13.6075 6.30553C13.1835 6.22068 12.746 6.24693 12.334 6.38195C11.922 6.51696 11.5483 6.75655 11.2461 7.07939V7.04022C11.2458 6.17853 11.0193 5.33351 10.5914 4.5975C10.1635 3.86149 9.55062 3.26281 8.81975 2.8669C8.08888 2.47099 7.26815 2.29307 6.44725 2.3526C5.62635 2.41212 4.83687 2.7068 4.16509 3.20442C3.4933 3.70204 2.96507 4.38346 2.63812 5.1742C2.31116 5.96495 2.19806 6.8346 2.31119 7.6881C2.42431 8.54161 2.7593 9.34613 3.27954 10.0137C3.79979 10.6814 4.48527 11.1864 5.26108 11.4736V13.1102C4.26884 12.8413 3.35917 12.3101 2.61921 11.5675C1.87926 10.8249 1.33382 9.8957 1.03515 8.86901C0.736479 7.84233 0.694592 6.75252 0.9135 5.70402C1.13241 4.65552 1.60477 3.68345 2.28534 2.88096C2.96591 2.07846 3.83187 1.47243 4.80026 1.12093C5.76865 0.769422 6.80702 0.684224 7.81587 0.873495C8.82472 1.06277 9.77026 1.52016 10.5619 2.20187C11.3535 2.88357 11.9647 3.76673 12.3369 4.76673C12.8995 4.654 13.4784 4.66553 14.0365 4.80058C14.5946 4.93564 15.1197 5.19123 15.578 5.55102C16.0364 5.9108 16.418 6.36684 16.6983 6.88994C16.9787 7.41304 17.1517 7.99168 17.2062 8.58882C17.2607 9.18595 17.1955 9.78842 17.0148 10.3577C16.8342 10.9269 16.542 11.4504 16.157 11.8946C15.7721 12.3388 15.3028 12.6939 14.7792 12.9372C14.2556 13.1805 13.6892 13.3067 13.1164 13.3076H12.7423ZM6.75733 11.7408H8.25359V14.8744H6.75733V11.7408ZM9.74984 14.091H11.2461V17.2247H9.74984V14.091Z" fill="#2A2A2A"/>
</svg>
